# Blender v2.79 (sub 0) OBJ File: ''
# www.blender.org
mtllib bld_Wall_2x2.mtl
o Cube
v 2.000000 -2.000000 -2.000000
v 2.000000 -2.000000 2.000000
v -2.000000 -2.000000 2.000000
v -1.999999 -2.000000 -2.000001
v 2.000001 2.000000 -1.999999
v 1.999999 2.000000 2.000001
v -2.000001 2.000000 1.999999
v -2.000000 2.000000 -2.000000
vt -0.999606 0.994923
vt -0.999607 -0.004880
vt 0.000197 -0.004880
vt 0.000197 0.994923
vt 1.999803 0.994923
vt 1.000000 0.994923
vt 1.000000 -0.004880
vt 1.999802 -0.004881
vt 2.999606 0.994922
vt 2.999605 -0.004881
vt -0.999607 -1.004682
vt 0.000196 -1.004683
vt -0.999606 1.994726
vt 0.000197 1.994725
vn 0.0000 -1.0000 0.0000
vn 0.0000 1.0000 0.0000
vn 1.0000 0.0000 0.0000
vn -0.0000 -0.0000 1.0000
vn -1.0000 -0.0000 -0.0000
vn 0.0000 0.0000 -1.0000
usemtl Matériau
s off
f 1/1/1 2/2/1 3/3/1 4/4/1
f 5/5/2 8/6/2 7/7/2 6/8/2
f 1/9/3 5/5/3 6/8/3 2/10/3
f 2/2/4 6/11/4 7/12/4 3/3/4
f 3/3/5 7/7/5 8/6/5 4/4/5
f 5/13/6 1/1/6 4/4/6 8/14/6
