# Blender v2.79 (sub 0) OBJ File: 'Fenetre cadre2.blend'
# www.blender.org
mtllib fenetre cadre2obj.mtl
o Cube.007_Cube.009
v 1.475410 10.420131 -7.220521
v 1.475410 -9.850135 -7.225657
v -1.000000 -9.850135 -7.225657
v -1.000000 10.420132 -7.220521
v 1.475411 10.419488 -6.189121
v 1.475410 -9.850779 -6.194255
v -1.000000 -9.850779 -6.194255
v -1.000000 10.419488 -6.189121
vn 0.0000 0.0003 -1.0000
vn 0.0000 -0.0003 1.0000
vn 1.0000 -0.0000 0.0000
vn 0.0000 -1.0000 -0.0006
vn -1.0000 0.0000 -0.0000
vn 0.0000 1.0000 0.0006
usemtl Material.009
s off
f 1//1 2//1 3//1 4//1
f 5//2 8//2 7//2 6//2
f 1//3 5//3 6//3 2//3
f 2//4 6//4 7//4 3//4
f 3//5 7//5 8//5 4//5
f 5//6 1//6 4//6 8//6
o Cube.008_Cube.010
v 1.402996 9.179772 -7.114787
v 1.402996 9.179772 6.839725
v -1.000000 9.179772 6.839725
v -1.000000 9.179772 -7.114787
v 1.402996 10.340957 -7.114786
v 1.402995 10.340957 6.839726
v -1.000000 10.340957 6.839725
v -1.000000 10.340957 -7.114787
vn 0.0000 -1.0000 -0.0000
vn 0.0000 1.0000 0.0000
vn 1.0000 0.0000 0.0000
vn 0.0000 -0.0000 1.0000
vn -1.0000 -0.0000 -0.0000
vn 0.0000 0.0000 -1.0000
usemtl Material.010
s off
f 9//7 10//7 11//7 12//7
f 13//8 16//8 15//8 14//8
f 9//9 13//9 14//9 10//9
f 10//10 14//10 15//10 11//10
f 11//11 15//11 16//11 12//11
f 13//12 9//12 12//12 16//12
o Cube.009_Cube.011
v 1.810399 -9.857497 -6.203434
v 1.810399 -9.857497 5.959907
v -1.000000 -9.857497 5.959907
v -1.000000 -9.857497 -6.203434
v 1.810399 -8.469634 -6.203433
v 1.810398 -8.469634 5.959908
v -1.000000 -8.469634 5.959907
v -1.000000 -8.469634 -6.203434
vn 0.0000 -1.0000 -0.0000
vn 0.0000 1.0000 0.0000
vn 1.0000 0.0000 0.0000
vn -0.0000 -0.0000 1.0000
vn -1.0000 -0.0000 -0.0000
vn 0.0000 0.0000 -1.0000
usemtl Material.011
s off
f 17//13 18//13 19//13 20//13
f 21//14 24//14 23//14 22//14
f 17//15 21//15 22//15 18//15
f 18//16 22//16 23//16 19//16
f 19//17 23//17 24//17 20//17
f 21//18 17//18 20//18 24//18
o Cube.006_Cube.012
v 1.475410 10.331366 5.851984
v 1.475410 -9.938900 5.846848
v -1.000000 -9.938900 5.846848
v -1.000000 10.331366 5.851984
v 1.475411 10.330723 6.883384
v 1.475410 -9.939544 6.878250
v -1.000000 -9.939544 6.878250
v -1.000000 10.330723 6.883384
vn 0.0000 0.0003 -1.0000
vn 0.0000 -0.0003 1.0000
vn 1.0000 -0.0000 0.0000
vn 0.0000 -1.0000 -0.0006
vn -1.0000 0.0000 -0.0000
vn 0.0000 1.0000 0.0006
usemtl Material.012
s off
f 25//19 26//19 27//19 28//19
f 29//20 32//20 31//20 30//20
f 25//21 29//21 30//21 26//21
f 26//22 30//22 31//22 27//22
f 27//23 31//23 32//23 28//23
f 29//24 25//24 28//24 32//24
