# Blender v2.79 (sub 0) OBJ File: 'palier_immeuble.blend'
# www.blender.org
mtllib Marche_Immeuble.mtl
o Cube.005_Cube.011
v -2.464784 2.367366 -1.459550
v -2.464784 2.841255 -1.459550
v -2.464784 2.367366 -3.668709
v -2.464784 2.841255 -3.668709
v -0.925521 2.367366 -1.459550
v -0.925521 2.841255 -1.459550
v -0.925521 2.367366 -3.668709
v -0.925521 2.841255 -3.668709
vt 0.998455 0.001362
vt 0.996602 0.173216
vt 0.004233 0.171363
vt 0.006086 -0.000491
vt 0.000000 0.000000
vt 1.000000 0.000000
vt 1.000000 1.000000
vt 0.000000 1.000000
vt 0.708966 0.884984
vt 0.291034 0.884984
vt 0.291034 0.115016
vt 0.708966 0.115016
vt 0.999504 1.001974
vt -0.000494 0.998024
vt 0.000496 -0.001974
vt 1.000494 0.001976
vt 1.000000 0.000000
vt 1.000000 1.000000
vt 0.000000 1.000000
vt -0.002019 1.000983
vt -0.000756 -0.001990
vt 0.999661 -0.003858
vt 1.001599 0.999124
vn -1.0000 0.0000 0.0000
vn 0.0000 0.0000 -1.0000
vn 1.0000 0.0000 0.0000
vn 0.0000 0.0000 1.0000
vn 0.0000 -1.0000 0.0000
vn 0.0000 1.0000 0.0000
usemtl Matériau.003
s off
f 1/1/1 2/2/1 4/3/1 3/4/1
f 3/5/2 4/6/2 8/7/2 7/8/2
f 7/9/3 8/10/3 6/11/3 5/12/3
f 5/13/4 6/14/4 2/15/4 1/16/4
f 3/5/5 7/17/5 5/18/5 1/19/5
f 8/20/6 4/21/6 2/22/6 6/23/6
