# Blender v2.79 (sub 0) OBJ File: 'Mur+fenetres_Fermé_01.blend'
# www.blender.org
mtllib Mur+Fenetre_Fermé_01.mtl
o Cube.006_Cube.027
v -1.887788 2.381659 -3.676503
v -1.887788 4.381659 -3.676503
v -1.887788 2.381659 -4.676503
v -1.887788 4.381659 -4.676503
v -1.387788 2.381659 -3.676503
v -1.387788 4.381659 -3.676503
v -1.387788 2.381659 -4.676503
v -1.387788 4.381659 -4.676503
vt 0.871936 0.505257
vt 0.871937 0.755884
vt 0.703300 0.755884
vt 0.703300 0.505257
vt 0.877500 0.966915
vt 0.708863 0.966915
vt 0.708863 0.716289
vt 0.877500 0.716289
vt 0.985331 0.975184
vt 0.816694 0.975184
vt 0.816694 0.724557
vt 0.985331 0.724557
vt 0.252112 0.625313
vt 0.252112 0.374687
vt 0.420749 0.374687
vt 0.420749 0.625313
vt 0.645035 0.291980
vt 0.476399 0.291980
vt 0.476399 0.041353
vt 0.645035 0.041353
vt 0.979656 0.712237
vt 0.979656 0.962864
vt 0.811019 0.962864
vt 0.811019 0.712237
vn -1.0000 0.0000 0.0000
vn 0.0000 0.0000 -1.0000
vn 1.0000 0.0000 0.0000
vn 0.0000 0.0000 1.0000
vn 0.0000 -1.0000 0.0000
vn 0.0000 1.0000 0.0000
usemtl Matériau.015
s off
f 1/1/1 2/2/1 4/3/1 3/4/1
f 3/5/2 4/6/2 8/7/2 7/8/2
f 7/9/3 8/10/3 6/11/3 5/12/3
f 5/13/4 6/14/4 2/15/4 1/16/4
f 3/17/5 7/18/5 5/19/5 1/20/5
f 8/21/6 4/22/6 2/23/6 6/24/6
o Cube.005_Cube.020
v -1.719305 3.237739 -3.553539
v -1.719305 3.237739 -2.924969
v -1.719305 3.331737 -3.553539
v -1.719305 3.331737 -2.924969
v -1.619672 3.237739 -3.553539
v -1.619672 3.237739 -2.924969
v -1.619672 3.331737 -3.553539
v -1.619672 3.331737 -2.924969
v -1.809650 2.898524 -2.943547
v -1.809650 2.898524 -2.870109
v -1.809650 3.916585 -2.943547
v -1.809650 3.916585 -2.870109
v -1.546969 2.898524 -2.943547
v -1.546969 2.898524 -2.870109
v -1.546969 3.916585 -2.943547
v -1.546969 3.916585 -2.870109
v -1.805347 2.886701 -3.505913
v -1.805347 2.886701 -2.941083
v -1.805347 3.027420 -3.505913
v -1.805347 3.027420 -2.941083
v -1.544149 2.886701 -3.505913
v -1.544149 2.886701 -2.941083
v -1.544149 3.027420 -3.505913
v -1.544149 3.027420 -2.941083
v -1.679640 3.015643 -3.495455
v -1.679640 3.015643 -2.939776
v -1.679640 3.793593 -3.495455
v -1.679640 3.793593 -2.939776
v -1.637970 3.015643 -3.495455
v -1.637970 3.015643 -2.939776
v -1.637970 3.793593 -3.495455
v -1.637970 3.793593 -2.939776
v -1.806552 3.787159 -3.500535
v -1.806552 3.787159 -2.938603
v -1.806552 3.927878 -3.500535
v -1.806552 3.927878 -2.938603
v -1.544149 3.787159 -3.500535
v -1.544149 3.787159 -2.938603
v -1.544149 3.927878 -3.500535
v -1.544149 3.927878 -2.938603
v -1.809650 2.898525 -3.576913
v -1.809650 2.898525 -3.503475
v -1.809650 3.916585 -3.576913
v -1.809650 3.916585 -3.503475
v -1.546969 2.898525 -3.576913
v -1.546969 2.898525 -3.503475
v -1.546969 3.916585 -3.576913
v -1.546969 3.916585 -3.503475
v -1.876814 2.817819 -2.869088
v -1.876814 2.817819 -2.763841
v -1.876814 4.036637 -2.869088
v -1.876814 4.036637 -2.763841
v -1.471925 2.817819 -2.869088
v -1.471925 2.817819 -2.763841
v -1.471925 4.036637 -2.869088
v -1.471925 4.036637 -2.763841
v -1.882835 2.779189 -3.671947
v -1.882835 2.779189 -2.746967
v -1.882835 2.919908 -3.671947
v -1.882835 2.919908 -2.746967
v -1.480216 2.779189 -3.671947
v -1.480216 2.779189 -2.746967
v -1.480216 2.919908 -3.671947
v -1.480216 2.919908 -2.746967
v -1.879305 3.894109 -3.588938
v -1.879305 3.894109 -2.739783
v -1.879305 4.034827 -3.588938
v -1.879305 4.034827 -2.739783
v -1.447834 3.894109 -3.588938
v -1.447834 3.894109 -2.739783
v -1.447834 4.034827 -3.588938
v -1.447834 4.034827 -2.739783
v -1.876814 2.777432 -3.676885
v -1.876814 2.777432 -3.571639
v -1.876814 4.035026 -3.676885
v -1.876814 4.035026 -3.571639
v -1.471925 2.777432 -3.676885
v -1.471925 2.777432 -3.571639
v -1.471925 4.035026 -3.676885
v -1.471925 4.035026 -3.571639
vt 0.656370 0.091067
vt 0.825004 0.091731
vt 0.824367 0.440093
vt 0.656948 0.440093
vt 0.658025 0.093645
vt 0.825853 0.092549
vt 0.824065 0.439098
vt 0.657131 0.439962
vt 0.658337 0.092781
vt 0.826317 0.091041
vt 0.825732 0.441575
vt 0.657278 0.439032
vt 0.000000 0.000000
vt 1.000000 0.000000
vt 1.000000 1.000000
vt 0.000000 1.000000
vt 0.000000 0.000000
vt 1.000000 0.000000
vt 1.000000 1.000000
vt 0.000000 0.000000
vt 1.000000 0.000000
vt 0.000000 1.000000
vt 0.656175 0.091981
vt 0.824085 0.092817
vt 0.825873 0.440674
vt 0.656273 0.439001
vt 0.200250 0.789038
vt 0.169728 0.789038
vt 0.169728 0.558730
vt 0.200250 0.558730
vt 0.826514 0.441270
vt 0.658364 0.440216
vt 0.656946 0.092468
vt 0.825095 0.093522
vt 0.293054 0.558730
vt 0.323576 0.558730
vt 0.323576 0.789038
vt 0.293054 0.789038
vt 0.657047 0.092637
vt 0.826376 0.090344
vt 0.826207 0.441521
vt 0.656878 0.439597
vt 0.228366 0.441270
vt 0.046402 0.441270
vt 0.046402 0.058730
vt 0.228366 0.058730
vt 0.657166 0.091911
vt 0.824651 0.093618
vt 0.825191 0.440034
vt 0.656670 0.439065
vt 0.656948 0.090329
vt 0.824814 0.091657
vt 0.825261 0.441421
vt 0.655905 0.439650
vt 0.656684 0.091552
vt 0.824651 0.092329
vt 0.824865 0.439516
vt 0.657211 0.440320
vt 0.000000 0.000000
vt 1.000000 0.000000
vt 1.000000 1.000000
vt 0.000000 1.000000
vt 0.440865 0.169510
vt 0.440865 0.830490
vt 0.231995 0.830490
vt 0.231995 0.169510
vt 0.000000 0.000000
vt 1.000000 0.000000
vt 0.000000 1.000000
vt 0.262115 0.912865
vt 0.045060 0.914539
vt 0.043933 0.376256
vt 0.262347 0.378567
vt 0.486625 0.062030
vt 0.486625 0.437970
vt 0.449081 0.437970
vt 0.449081 0.062030
vt 0.260567 0.914526
vt 0.048145 0.912417
vt 0.043889 0.369894
vt 0.261985 0.372002
vt 0.585753 0.437970
vt 0.585753 0.062030
vt 0.623296 0.062030
vt 0.623296 0.437970
vt 0.623296 0.937970
vt 0.585753 0.937970
vt 0.585753 0.562030
vt 0.623296 0.562030
vt 0.449081 0.562030
vt 0.486625 0.562030
vt 0.486625 0.937970
vt 0.449081 0.937970
vt 0.825939 0.091316
vt 0.825570 0.440029
vt 0.657271 0.440029
vt 0.656931 0.091316
vt 0.084497 0.428910
vt 0.084497 0.071090
vt 0.415503 0.071090
vt 0.415503 0.428910
vt 0.826347 0.090865
vt 0.827056 0.442359
vt 0.658026 0.439703
vt 0.657316 0.088208
vt 0.584497 0.428910
vt 0.584497 0.071090
vt 0.915503 0.071090
vt 0.915503 0.428910
vt 0.895780 0.571090
vt 0.895780 0.849573
vt 0.819705 0.849573
vt 0.819705 0.571090
vt 0.574636 0.849573
vt 0.574636 0.571090
vt 0.650711 0.571090
vt 0.650711 0.849573
vt 0.656054 0.092986
vt 0.824973 0.096333
vt 0.826761 0.437462
vt 0.657842 0.434115
vt 0.000000 0.000000
vt 1.000000 0.000000
vt 1.000000 1.000000
vt 0.000000 1.000000
vt 0.825433 0.091436
vt 0.825158 0.440418
vt 0.658225 0.439428
vt 0.657081 0.092555
vt 0.000000 0.000000
vt 1.000000 0.000000
vt 1.000000 1.000000
vt 0.000000 1.000000
vt 1.000000 0.000000
vt 1.000000 1.000000
vt 0.655499 0.090672
vt 0.824065 0.090672
vt 0.824324 0.437657
vt 0.655759 0.437657
vt 0.824651 0.439446
vt 0.656657 0.440661
vt 0.657263 0.091178
vt 0.825765 0.089860
vt 0.657842 0.090329
vt 0.825155 0.089739
vt 0.824842 0.435717
vt 0.659630 0.436772
vt 0.656814 0.090329
vt 0.824744 0.090802
vt 0.824814 0.438374
vt 0.657377 0.440265
vt 0.000000 0.000000
vt 1.000000 -0.001054
vt 1.003575 1.006642
vt 0.000000 1.000000
vt 0.657087 0.090585
vt 0.826142 0.091687
vt 0.825016 0.438857
vt 0.657874 0.439122
vt 0.657628 0.091726
vt 0.824406 0.094383
vt 0.824803 0.441523
vt 0.658337 0.442261
vt 0.826102 0.090396
vt 0.826102 0.436950
vt 0.657120 0.438279
vt 0.657120 0.091724
vt 0.826775 0.089932
vt 0.825976 0.437999
vt 0.656251 0.439053
vt 0.656340 0.088877
vt 0.657540 0.438758
vt 0.656121 0.088774
vt 0.825055 0.089829
vt 0.825055 0.437704
vt 0.277835 0.532593
vt 0.277835 0.051873
vt 0.463168 0.051873
vt 0.463168 0.532593
vt 0.030834 0.948127
vt 0.030834 0.636339
vt 0.058595 0.636339
vt 0.058595 0.948127
vt 0.148024 0.636339
vt 0.148024 0.948127
vt 0.120264 0.948127
vt 0.120263 0.636339
vt 0.823425 0.088213
vt 0.825212 0.439683
vt 0.658145 0.441012
vt 0.656357 0.089541
vt 0.826598 0.091238
vt 0.826598 0.438887
vt 0.657070 0.436779
vt 0.657070 0.089130
vt 0.658517 0.440058
vt 0.659936 0.091016
vt 0.826756 0.091016
vt 0.825337 0.440058
vt 0.477245 0.455624
vt 0.477245 0.044376
vt 0.802845 0.044376
vt 0.802845 0.455624
vt 0.197155 0.830219
vt 0.197155 0.544376
vt 0.242665 0.544376
vt 0.242665 0.830219
vt 0.825416 0.092204
vt 0.825416 0.440808
vt 0.657721 0.439971
vt 0.657721 0.091367
vt 0.656613 0.095625
vt 0.825441 0.092462
vt 0.824732 0.441259
vt 0.656613 0.441259
vt 0.656595 0.438707
vt 0.824561 0.440219
vt 0.824923 0.091193
vt 0.656603 0.090850
vt 0.825205 0.442259
vt 0.656017 0.443588
vt 0.658698 0.092278
vt 0.825205 0.090950
vt 0.243433 0.549770
vt 0.276762 0.549770
vt 0.276762 0.905432
vt 0.107935 0.908594
vt 0.825414 0.440641
vt 0.656490 0.439471
vt 0.656043 0.092146
vt 0.825414 0.091022
vt 0.823682 0.437578
vt 0.657117 0.440058
vt 0.661059 0.091944
vt 0.823682 0.094052
vn -1.0000 0.0000 0.0000
vn 0.0000 1.0000 0.0000
vn 1.0000 0.0000 0.0000
vn 0.0000 -1.0000 0.0000
vn 0.0000 0.0000 -1.0000
vn 0.0000 0.0000 1.0000
usemtl Matériau.013
s off
f 9/25/7 10/26/7 12/27/7 11/28/7
f 11/29/8 12/30/8 16/31/8 15/32/8
f 15/33/9 16/34/9 14/35/9 13/36/9
f 13/37/10 14/38/10 10/39/10 9/40/10
f 11/41/11 15/42/11 13/43/11 9/40/11
f 16/44/12 12/45/12 10/39/12 14/46/12
usemtl Matériau.009
f 17/47/7 18/48/7 20/49/7 19/50/7
f 19/51/8 20/52/8 24/53/8 23/54/8
f 23/55/9 24/56/9 22/57/9 21/58/9
f 21/59/10 22/60/10 18/61/10 17/62/10
f 19/63/11 23/64/11 21/65/11 17/66/11
f 24/67/12 20/68/12 18/69/12 22/70/12
usemtl Matériau.012
f 25/71/7 26/72/7 28/73/7 27/74/7
f 27/75/8 28/76/8 32/77/8 31/78/8
f 31/79/9 32/80/9 30/81/9 29/82/9
f 29/83/10 30/84/10 26/85/10 25/86/10
f 27/87/11 31/88/11 29/89/11 25/90/11
f 32/91/12 28/92/12 26/85/12 30/93/12
usemtl Matériau.014
f 33/94/7 34/95/7 36/96/7 35/97/7
f 35/98/8 36/99/8 40/100/8 39/101/8
f 39/102/9 40/103/9 38/104/9 37/105/9
f 37/106/10 38/107/10 34/108/10 33/109/10
f 35/110/11 39/111/11 37/112/11 33/113/11
f 40/114/12 36/115/12 34/116/12 38/117/12
usemtl Matériau.010
f 41/118/7 42/119/7 44/120/7 43/121/7
f 43/122/8 44/123/8 48/124/8 47/125/8
f 47/126/9 48/127/9 46/128/9 45/129/9
f 45/130/10 46/131/10 42/132/10 41/133/10
f 43/134/11 47/135/11 45/136/11 41/137/11
f 48/138/12 44/139/12 42/140/12 46/141/12
usemtl Matériau.011
f 49/142/7 50/143/7 52/144/7 51/145/7
f 51/146/8 52/147/8 56/148/8 55/149/8
f 55/150/9 56/151/9 54/152/9 53/153/9
f 53/154/10 54/155/10 50/156/10 49/157/10
f 51/146/11 55/158/11 53/159/11 49/157/11
f 56/160/12 52/161/12 50/162/12 54/163/12
usemtl Matériau.007
f 57/164/7 58/165/7 60/166/7 59/167/7
f 59/168/8 60/169/8 64/170/8 63/171/8
f 63/172/9 64/173/9 62/174/9 61/175/9
f 61/176/10 62/177/10 58/178/10 57/179/10
f 59/180/11 63/181/11 61/182/11 57/183/11
f 64/184/12 60/185/12 58/186/12 62/187/12
usemtl Matériau.008
f 65/188/7 66/189/7 68/190/7 67/191/7
f 67/192/8 68/193/8 72/194/8 71/195/8
f 71/196/9 72/197/9 70/198/9 69/199/9
f 69/200/10 70/201/10 66/202/10 65/203/10
f 67/204/11 71/205/11 69/206/11 65/207/11
f 72/208/12 68/209/12 66/210/12 70/211/12
usemtl Matériau.004
f 73/212/7 74/213/7 76/214/7 75/215/7
f 75/216/8 76/217/8 80/218/8 79/219/8
f 79/220/9 80/221/9 78/222/9 77/223/9
f 77/224/10 78/225/10 74/226/10 73/227/10
f 75/228/11 79/229/11 77/230/11 73/231/11
f 80/232/12 76/233/12 74/234/12 78/235/12
usemtl Matériau.006
f 81/236/7 82/237/7 84/238/7 83/239/7
f 83/240/8 84/241/8 88/242/8 87/243/8
f 87/244/9 88/245/9 86/246/9 85/247/9
f 85/248/10 86/249/10 82/250/10 81/251/10
f 83/252/11 87/253/11 85/254/11 81/255/11
f 88/256/12 84/257/12 82/258/12 86/259/12
o Cube.012_Cube.028
v -1.887788 2.381659 0.275412
v -1.887788 4.381659 0.275412
v -1.887788 2.381659 -2.724587
v -1.887788 4.381659 -2.724587
v -1.387788 2.381659 0.275412
v -1.387788 4.381659 0.275412
v -1.387788 2.381659 -2.724587
v -1.387788 4.381659 -2.724587
vt 0.808136 0.958089
vt 0.639499 0.958089
vt 0.639499 0.707462
vt 0.808136 0.707462
vt 0.196462 0.625313
vt 0.027825 0.625313
vt 0.027825 0.374687
vt 0.196462 0.374687
vt 0.948714 0.961436
vt 0.780077 0.961436
vt 0.780077 0.710809
vt 0.948714 0.710809
vt 0.252112 0.625313
vt 0.252112 0.374687
vt 0.420749 0.374687
vt 0.420749 0.625313
vt 0.645035 0.291980
vt 0.476399 0.291980
vt 0.476399 0.041353
vt 0.645035 0.041353
vt 0.901417 0.704673
vt 0.901417 0.955299
vt 0.732780 0.955299
vt 0.732780 0.704673
vn -1.0000 0.0000 0.0000
vn 0.0000 0.0000 -1.0000
vn 1.0000 0.0000 0.0000
vn 0.0000 0.0000 1.0000
vn 0.0000 -1.0000 0.0000
vn 0.0000 1.0000 0.0000
usemtl Matériau.018
s off
f 89/260/13 90/261/13 92/262/13 91/263/13
f 91/264/14 92/265/14 96/266/14 95/267/14
f 95/268/15 96/269/15 94/270/15 93/271/15
f 93/272/16 94/273/16 90/274/16 89/275/16
f 91/276/17 95/277/17 93/278/17 89/279/17
f 96/280/18 92/281/18 90/282/18 94/283/18
o Cube.000_Cube.029
v -1.887788 3.984686 -2.700252
v -1.887788 4.382572 -2.700252
v -1.887788 3.984686 -3.674363
v -1.887788 4.382572 -3.674363
v -1.387788 3.984686 -2.700252
v -1.387788 4.382572 -2.700252
v -1.387788 3.984686 -3.674363
v -1.387788 4.382572 -3.674363
vt 0.615772 0.586206
vt 0.994325 0.594640
vt 0.986487 0.959833
vt 0.616943 0.954745
vt 0.000000 0.000000
vt 1.000000 0.000000
vt 1.000000 1.000000
vt 0.000000 1.000000
vt 0.621622 0.739749
vt 1.002252 0.746443
vt 1.000000 1.000000
vt 0.619369 0.993305
vt 0.000000 0.000000
vt 1.000000 0.000000
vt 1.000000 1.000000
vt 0.000000 1.000000
vt 1.000000 0.000000
vt 1.000000 1.000000
vt 0.610360 0.599163
vt 0.997748 0.599163
vt 0.612613 1.000000
vn -1.0000 0.0000 0.0000
vn 0.0000 0.0000 -1.0000
vn 1.0000 0.0000 0.0000
vn 0.0000 0.0000 1.0000
vn 0.0000 -1.0000 0.0000
vn 0.0000 1.0000 0.0000
usemtl Matériau.017
s off
f 97/284/19 98/285/19 100/286/19 99/287/19
f 99/288/20 100/289/20 104/290/20 103/291/20
f 103/292/21 104/293/21 102/294/21 101/295/21
f 101/296/22 102/297/22 98/298/22 97/299/22
f 99/288/23 103/300/23 101/301/23 97/299/23
f 104/302/24 100/303/24 98/298/24 102/304/24
o Cube.001_Cube.030
v -1.887788 2.388024 -2.700252
v -1.887788 2.785910 -2.700252
v -1.887788 2.388024 -3.674363
v -1.887788 2.785910 -3.674363
v -1.387788 2.388024 -2.700252
v -1.387788 2.785910 -2.700252
v -1.387788 2.388024 -3.674363
v -1.387788 2.785910 -3.674363
vt 4.894576 0.762003
vt 4.832690 0.762003
vt 4.832690 0.578899
vt 4.894576 0.578899
vt 0.113212 0.937970
vt 0.051327 0.937970
vt 0.051326 0.562030
vt 0.113212 0.562030
vt 0.876849 0.885719
vt 0.814964 0.885719
vt 0.814964 0.702616
vt 0.876849 0.702616
vt 0.559649 0.062030
vt 0.621534 0.062030
vt 0.621534 0.437970
vt 0.559649 0.437970
vt 0.456996 0.062030
vt 0.456996 0.437970
vt 0.305488 0.437970
vt 0.305488 0.062030
vt 0.202835 0.062030
vt 0.202835 0.437970
vt 0.051327 0.437970
vt 0.051326 0.062030
vn -1.0000 0.0000 0.0000
vn 0.0000 0.0000 -1.0000
vn 1.0000 0.0000 0.0000
vn 0.0000 0.0000 1.0000
vn 0.0000 -1.0000 0.0000
vn 0.0000 1.0000 0.0000
usemtl Matériau.016
s off
f 105/305/25 106/306/25 108/307/25 107/308/25
f 107/309/26 108/310/26 112/311/26 111/312/26
f 111/313/27 112/314/27 110/315/27 109/316/27
f 109/317/28 110/318/28 106/319/28 105/320/28
f 107/321/29 111/322/29 109/323/29 105/324/29
f 112/325/30 108/326/30 106/327/30 110/328/30
