# Blender v2.79 (sub 0) OBJ File: ''
# www.blender.org
mtllib mur[3x1x0.25]_B+B_2.mtl
o Cube
v 2.463729 -1.054071 1.662636
v 2.463729 -1.054071 2.162636
v -3.536272 -1.054071 2.162636
v -3.536270 -1.054071 1.662636
v 2.463730 0.945929 1.662636
v 2.463727 0.945929 2.162636
v -3.536272 0.945929 2.162636
v -3.536271 0.945929 1.662636
vt 0.041353 0.708020
vt 0.290188 0.794044
vt 0.042870 1.043774
vt 0.041353 0.958647
vt 0.994497 0.419491
vt 0.999874 0.496278
vt 0.505514 0.495382
vt 0.505514 0.408738
vt 0.586928 0.500842
vt 0.503391 0.500842
vt 0.500004 0.334890
vt 0.587394 0.336239
vt -0.002225 0.329212
vt -0.005272 0.164610
vt 0.492668 0.164448
vt 0.495716 0.329050
vt 0.502772 0.664466
vt 0.386147 0.664957
vt 0.385118 0.496984
vt 0.504583 0.496553
vt 0.498373 0.334289
vt 0.497125 0.166027
vt 0.995139 0.163348
vt 0.995806 0.333034
vn 0.0000 -1.0000 0.0000
vn 0.0000 1.0000 -0.0000
vn 1.0000 0.0000 0.0000
vn -0.0000 -0.0000 1.0000
vn -1.0000 -0.0000 -0.0000
vn 0.0000 0.0000 -1.0000
usemtl R+B_2
s off
f 1/1/1 2/2/1 3/3/1 4/4/1
f 5/5/2 8/6/2 7/7/2 6/8/2
f 1/9/3 5/10/3 6/11/3 2/12/3
f 2/13/4 6/14/4 7/15/4 3/16/4
f 3/17/5 7/18/5 8/19/5 4/20/5
f 5/21/6 1/22/6 4/23/6 8/24/6
