# Blender v2.79 (sub 0) OBJ File: 'mur_Parp_fissure.blend'
# www.blender.org
mtllib mur_Parp_fissure.2obj.mtl
o Cube
v 1.000000 -1.000000 -3.655792
v 1.000000 -1.000000 1.000000
v -1.000000 -1.000000 1.000000
v -1.000000 -1.000000 -3.655792
v 1.000000 2.129448 -3.655792
v 0.999999 2.129448 1.000001
v -1.000000 2.129448 1.000000
v -1.000000 2.129448 -3.655792
vt -0.339185 2.534518
vt -0.348611 1.015033
vt -0.011295 1.010983
vt -0.001869 2.530469
vt 0.774310 1.001553
vt 0.778359 1.654282
vt -0.006879 1.663709
vt -0.010928 1.010979
vt 0.767974 -0.019787
vt -0.017264 -0.010361
vt -0.354947 -0.006308
vt -0.017630 -0.010357
vt -0.000543 2.685050
vt 0.784695 2.675623
vt -0.332849 3.555859
vt 0.004467 3.551808
vn 0.5773 -0.5773 -0.5773
vn 0.5773 -0.5773 0.5773
vn -0.5773 -0.5773 0.5773
vn -0.5773 -0.5773 -0.5773
vn 0.5773 0.5773 -0.5773
vn -0.5773 0.5773 -0.5773
vn -0.5773 0.5773 0.5773
vn 0.5773 0.5773 0.5773
usemtl parping
s 1
f 1/1/1 2/2/2 3/3/3 4/4/4
f 5/5/5 8/6/6 7/7/7 6/8/8
f 1/9/1 5/5/5 6/8/8 2/10/2
f 2/2/2 6/11/8 7/12/7 3/3/3
f 3/13/3 7/7/7 8/6/6 4/14/4
f 5/15/5 1/1/1 4/4/4 8/16/6
