# Blender v2.79 (sub 0) OBJ File: ''
# www.blender.org
mtllib mur_brique_2x2_obj.mtl
o Cube
v 0.500000 -2.000000 -2.000000
v 0.500000 -2.000000 2.000000
v -0.500000 -2.000000 2.000000
v -0.500000 -2.000000 -2.000001
v 0.500000 2.000000 -1.999999
v 0.500000 2.000000 2.000001
v -0.500000 2.000000 1.999999
v -0.500000 2.000000 -2.000000
vt 0.962448 4.191422
vt 0.032078 4.191135
vt 0.040967 2.097623
vt 0.971338 2.097909
vt 0.989116 -2.089114
vt 0.980227 0.004391
vt 0.049857 0.004104
vt 0.058746 -2.089400
vt 0.998006 -4.182622
vt 0.067636 -4.182907
vt -0.898291 4.190848
vt -0.889403 2.097337
vt 1.892818 4.191707
vt 1.901707 2.098194
vn 0.0000 -1.0000 0.0000
vn 0.0000 1.0000 0.0000
vn 1.0000 0.0000 0.0000
vn -0.0000 -0.0000 1.0000
vn -1.0000 -0.0000 -0.0000
vn 0.0000 0.0000 -1.0000
usemtl Matériau
s off
f 1/1/1 2/2/1 3/3/1 4/4/1
f 5/5/2 8/6/2 7/7/2 6/8/2
f 1/9/3 5/5/3 6/8/3 2/10/3
f 2/2/4 6/11/4 7/12/4 3/3/4
f 3/3/5 7/7/5 8/6/5 4/4/5
f 5/13/6 1/1/6 4/4/6 8/14/6
