# Blender v2.79 (sub 0) OBJ File: ''
# www.blender.org
mtllib Obstacle01obj.mtl
o Cube
v 0.500000 -1.000000 -2.000000
v 0.500000 -1.000000 2.000000
v -0.500000 -1.000000 2.000000
v -0.500000 -1.000000 -2.000001
v 0.500000 1.000000 -1.999999
v 0.500000 1.000000 2.000001
v -0.500000 1.000000 1.999999
v -0.500000 1.000000 -2.000000
v 0.500000 -1.000000 -2.000000
v 0.500000 -1.000000 2.000000
v -0.500000 -1.000000 -2.000001
v -0.500000 -1.000000 2.000000
v 0.500000 -1.000000 -1.333333
v 0.500000 -1.000000 -0.666667
v 0.500000 -1.000000 0.000000
v 0.500000 -1.000000 0.666667
v 0.500000 -1.000000 1.333333
v 0.500000 -0.666667 -2.000000
v 0.500000 -0.333333 -2.000000
v 0.500000 0.000000 -2.000000
v 0.500000 0.333333 -1.999999
v 0.500000 0.666667 -1.999999
v 0.500000 -0.666667 2.000000
v 0.500000 -0.333333 2.000000
v 0.500000 0.000000 2.000001
v 0.500000 0.333333 2.000001
v 0.500000 0.666667 2.000001
v 0.500000 -0.666667 -1.333333
v 0.500000 -0.666667 -0.666666
v 0.500000 -0.666667 0.000000
v 0.500000 -0.333333 -1.333333
v 0.500000 -0.333333 -0.666666
v 0.500000 -0.333333 0.000000
v 0.500000 0.000000 0.000001
v 0.500000 0.000000 0.666667
v 0.500000 0.000000 1.333334
v 0.500000 0.333333 0.000001
v 0.500000 0.333333 0.666668
v 0.500000 0.333333 1.333334
v 0.500000 0.666667 -1.333332
v 0.500000 0.666667 -0.666666
v 0.500000 0.666667 0.000001
v 0.500000 0.666667 0.666668
v 0.500000 0.666667 1.333334
v -0.500000 -1.000000 1.333333
v -0.500000 -1.000000 0.666666
v -0.500000 -1.000000 -0.000001
v -0.500000 -1.000000 -0.666667
v -0.500000 -1.000000 -1.333334
v -0.500000 -0.666667 2.000000
v -0.500000 -0.333333 2.000000
v -0.500000 0.000000 2.000000
v -0.500000 0.333333 1.999999
v -0.500000 0.666667 1.999999
v -0.500000 -0.666667 -2.000000
v -0.500000 -0.333333 -2.000000
v -0.500000 0.000000 -2.000000
v -0.500000 0.333333 -2.000000
v -0.500000 0.666667 -2.000000
v -0.500000 -0.666667 1.333333
v -0.500000 -0.666667 0.666666
v -0.500000 -0.666667 -0.000001
v -0.500000 -0.666667 -0.666667
v -0.500000 -0.666667 -1.333334
v -0.500000 -0.333333 1.333333
v -0.500000 -0.333333 0.666666
v -0.500000 -0.333333 -0.000001
v -0.500000 -0.333333 -0.666667
v -0.500000 -0.333333 -1.333334
v -0.500000 0.000000 1.333333
v -0.500000 0.000000 0.666666
v -0.500000 0.000000 -0.000001
v -0.500000 0.000000 -0.666667
v -0.500000 0.000000 -1.333334
v -0.500000 0.333333 1.333333
v -0.500000 0.333333 0.666666
v -0.500000 0.333333 -0.000000
v -0.500000 0.333333 -0.666667
v -0.500000 0.333333 -1.333334
v -0.500000 0.666667 1.333333
v -0.500000 0.666667 0.666666
v -0.500000 0.666667 -0.000000
v -0.500000 0.666667 -0.666667
v -0.500000 0.666667 -1.333333
v -0.852145 -1.000000 -1.333334
v -0.852144 -1.000000 -2.000001
v -0.852145 0.666667 -2.000000
v -0.852145 1.000000 -2.000000
v -0.852145 1.000000 -1.333333
v -0.852144 -0.666667 -2.000000
v -0.852145 -0.333333 -2.000000
v -0.852145 0.000000 -2.000000
v -0.852145 0.333333 -2.000000
v -0.852145 -0.666667 -1.333334
v -0.852145 -0.333333 -1.333334
v -0.852145 0.000000 -1.333334
v -0.852145 0.333333 -1.333334
v -0.852145 0.666667 -1.333333
v -0.874641 -1.016369 -0.000001
v -0.874641 -1.016369 -0.666667
v -0.874641 0.983631 -0.000000
v -0.874641 0.983631 -0.666667
v -0.874641 -0.683035 -0.000001
v -0.874641 -0.683035 -0.666667
v -0.874641 -0.349702 -0.000001
v -0.874641 -0.349702 -0.666667
v -0.874641 -0.016369 -0.000001
v -0.874641 -0.016369 -0.666667
v -0.874641 0.316965 -0.000001
v -0.874641 0.316965 -0.666667
v -0.874641 0.650298 -0.000000
v -0.874641 0.650298 -0.666667
v -0.917091 -1.000000 1.333333
v -0.917091 -1.000000 0.666666
v -0.917091 1.000000 1.333333
v -0.917091 1.000000 0.666666
v -0.917091 -0.666667 1.333333
v -0.917091 -0.666667 0.666666
v -0.917091 -0.333333 1.333333
v -0.917091 -0.333333 0.666666
v -0.917091 0.000000 1.333333
v -0.917091 0.000000 0.666666
v -0.917091 0.333333 1.333333
v -0.917091 0.333333 0.666666
v -0.917091 0.666667 1.333333
v -0.917091 0.666667 0.666666
v 0.871844 -1.000000 1.333333
v 0.871844 -1.000000 2.000000
v 0.871844 0.666667 2.000001
v 0.871844 1.000000 2.000001
v 0.871844 1.000000 1.333334
v 0.871844 -0.666667 2.000000
v 0.871844 -0.333333 2.000000
v 0.871844 0.000000 2.000001
v 0.871844 0.333333 2.000001
v 0.871844 -0.666667 1.333334
v 0.871844 -0.333333 1.333334
v 0.871844 0.000000 1.333334
v 0.871844 0.333333 1.333334
v 0.871844 0.666667 1.333334
v 0.993751 -1.000000 -1.333333
v 0.993751 -1.000000 -0.666667
v 0.993751 -1.000000 0.000000
v 0.993751 -1.000000 0.666667
v 0.993751 1.000000 -1.333332
v 0.993751 1.000000 -0.666666
v 0.993751 1.000000 0.000001
v 0.993751 1.000000 0.666668
v 0.993751 -0.666667 -1.333333
v 0.993751 -0.666667 -0.666666
v 0.993751 -0.666667 0.000000
v 0.993751 -0.666667 0.666667
v 0.993751 -0.333333 -1.333333
v 0.993751 -0.333333 -0.666666
v 0.993751 -0.333333 0.000000
v 0.993751 -0.333333 0.666667
v 0.993751 0.000000 0.000001
v 0.993751 0.000000 0.666667
v 0.993751 0.333333 0.000001
v 0.993751 0.333333 0.666668
v 0.993751 0.666667 -1.333332
v 0.993751 0.666667 -0.666666
v 0.993751 0.666667 0.000001
v 0.993751 0.666667 0.666668
v 0.500000 1.000000 -1.199999
v 0.500000 1.000000 -0.399999
v 0.500000 1.000000 0.400001
v 0.500000 1.000000 1.200001
v 0.300000 1.000000 -1.999999
v 0.100000 1.000000 -1.999999
v -0.100000 1.000000 -2.000000
v -0.300000 1.000000 -2.000000
v 0.300000 1.000000 2.000001
v 0.100000 1.000000 2.000000
v -0.100000 1.000000 2.000000
v -0.300000 1.000000 2.000000
v -0.500000 1.000000 1.199999
v -0.500000 1.000000 0.399999
v -0.500000 1.000000 -0.400000
v -0.500000 1.000000 -1.200000
v 0.300000 1.000000 -1.199999
v 0.100000 1.000000 -1.199999
v -0.100000 1.000000 -1.200000
v -0.300000 1.000000 -1.200000
v 0.300000 1.000000 -0.399999
v 0.100000 1.000000 -0.399999
v -0.100000 1.000000 -0.400000
v -0.300000 1.000000 -0.400000
v 0.300000 1.000000 0.400001
v 0.100000 1.000000 0.400001
v -0.100000 1.000000 0.400000
v -0.300000 1.000000 0.400000
v 0.300000 1.000000 1.200001
v 0.100000 1.000000 1.200001
v -0.100000 1.000000 1.200000
v -0.300000 1.000000 1.200000
v -0.100000 1.606097 2.000000
v -0.300000 1.606097 2.000000
v -0.100000 1.606097 1.200000
v -0.300000 1.606097 1.200000
v -0.100000 1.945179 2.000000
v -0.300000 1.945179 2.000000
v -0.100000 1.945179 1.200000
v -0.300000 1.945179 1.200000
v 0.500000 1.000000 1.466668
v 0.500000 1.000000 1.733335
v 0.433333 1.000000 2.000001
v 0.366666 1.000000 2.000001
v 0.433333 1.000000 1.200001
v 0.366666 1.000000 1.200001
v 0.300000 1.000000 1.733334
v 0.300000 1.000000 1.466667
v 0.433333 1.000000 1.466668
v 0.366666 1.000000 1.466668
v 0.433333 1.000000 1.733334
v 0.366666 1.000000 1.733334
v 0.433333 1.318686 2.000001
v 0.366666 1.318686 2.000001
v 0.433333 1.318686 1.466668
v 0.366666 1.318686 1.466668
v 0.433333 1.318686 1.733334
v 0.366666 1.318686 1.733334
v 0.433333 1.656840 2.000001
v 0.366666 1.656840 2.000001
v 0.433333 1.656840 1.733334
v 0.366666 1.656840 1.733334
v 0.500000 -1.000000 2.000000
v -0.500000 -1.000000 2.000000
v 0.500000 0.666667 2.000001
v 0.500000 1.000000 2.000001
v -0.500000 0.666667 1.999999
v -0.500000 1.000000 1.999999
v 0.500000 -0.666667 2.000000
v 0.500000 0.000000 2.000001
v 0.500000 0.333333 2.000001
v -0.500000 -0.666667 2.000000
v -0.500000 -0.333333 2.000000
v -0.500000 0.000000 2.000000
v -0.500000 0.333333 1.999999
v 0.250000 -1.000000 2.000000
v -0.000000 -1.000000 2.000000
v -0.250000 -1.000000 2.000000
v 0.500000 0.750000 2.000001
v 0.500000 0.833333 2.000001
v 0.500000 0.916667 2.000001
v -0.500000 0.750000 1.999999
v -0.500000 0.833333 1.999999
v -0.500000 0.916667 1.999999
v 0.250000 1.000000 2.000001
v -0.000000 1.000000 2.000000
v -0.250000 1.000000 2.000000
v 0.500000 -0.916667 2.000000
v 0.500000 -0.833333 2.000000
v 0.500000 -0.750000 2.000000
v 0.500000 -0.583333 2.000000
v 0.500000 -0.500000 2.000000
v 0.500000 -0.250000 2.000000
v 0.500000 -0.166667 2.000000
v 0.500000 -0.083333 2.000000
v 0.500000 0.083333 2.000001
v 0.500000 0.166667 2.000001
v 0.500000 0.250000 2.000001
v 0.500000 0.416667 2.000001
v 0.500000 0.500000 2.000001
v 0.500000 0.583333 2.000001
v -0.500000 -0.916667 2.000000
v -0.500000 -0.833333 2.000000
v -0.500000 -0.750000 2.000000
v -0.500000 -0.583333 2.000000
v -0.500000 -0.500000 2.000000
v -0.500000 -0.416667 2.000000
v -0.500000 -0.250000 2.000000
v -0.500000 -0.166667 2.000000
v -0.500000 -0.083333 2.000000
v -0.500000 0.083333 2.000000
v -0.500000 0.166667 2.000000
v -0.500000 0.250000 2.000000
v -0.500000 0.416667 1.999999
v -0.500000 0.500000 1.999999
v -0.500000 0.583333 1.999999
v -0.250001 -1.000000 2.632332
v -0.500001 -1.000000 2.632332
v 0.499999 0.916667 2.632333
v 0.499999 1.000000 2.632333
v -0.500001 0.916667 2.632331
v -0.500001 1.000000 2.632331
v -0.250001 1.000000 2.632332
v 0.499999 -0.750000 2.632332
v 0.499999 -0.666667 2.632332
v 0.499999 -0.083333 2.632333
v 0.499999 -0.000000 2.632333
v 0.499999 0.250000 2.632333
v 0.499999 0.333333 2.632333
v 0.499999 0.583333 2.632333
v 0.499999 0.666667 2.632333
v -0.500001 -0.750000 2.632332
v -0.500001 -0.666667 2.632332
v -0.500001 -0.416667 2.632332
v -0.500001 -0.333333 2.632332
v -0.500001 -0.083333 2.632332
v -0.500001 -0.000000 2.632332
v -0.500001 0.250000 2.632332
v -0.500001 0.333333 2.632331
v -0.500001 0.583333 2.632331
v -0.500001 0.666667 2.632331
v 0.499999 -1.000000 2.632332
v 0.249999 -1.000000 2.632332
v -0.000001 -1.000000 2.632332
v 0.499999 0.750000 2.632333
v 0.499999 0.833333 2.632333
v -0.500001 0.750000 2.632331
v -0.500001 0.833333 2.632331
v 0.249999 1.000000 2.632333
v -0.000001 1.000000 2.632332
v 0.499999 -0.916667 2.632332
v 0.499999 -0.833333 2.632332
v 0.499999 -0.583333 2.632332
v 0.499999 -0.500000 2.632332
v 0.499999 -0.250000 2.632333
v 0.499999 -0.166667 2.632333
v 0.499999 0.083333 2.632333
v 0.499999 0.166667 2.632333
v 0.499999 0.416667 2.632333
v 0.499999 0.500000 2.632333
v -0.500001 -0.916667 2.632332
v -0.500001 -0.833333 2.632332
v -0.500001 -0.583333 2.632332
v -0.500001 -0.500000 2.632332
v -0.500001 -0.250000 2.632332
v -0.500001 -0.166667 2.632332
v -0.500001 0.083333 2.632332
v -0.500001 0.166667 2.632332
v -0.500001 0.416667 2.632331
v -0.500001 0.500000 2.632331
v -0.375001 -1.000000 2.632332
v 0.499999 0.958333 2.632333
v -0.500001 0.958333 2.632331
v -0.375001 1.000000 2.632332
v 0.499999 -0.708333 2.632332
v 0.499999 -0.041667 2.632333
v 0.499999 0.291667 2.632333
v 0.499999 0.625000 2.632333
v -0.500001 -0.708333 2.632332
v -0.500001 -0.375000 2.632332
v -0.500001 -0.041667 2.632332
v -0.500001 0.291667 2.632331
v -0.500001 0.625000 2.632331
v 0.374999 -1.000000 2.632332
v 0.124999 -1.000000 2.632332
v -0.125001 -1.000000 2.632332
v 0.499999 0.708333 2.632333
v 0.499999 0.791667 2.632333
v 0.499999 0.875000 2.632333
v -0.500001 0.708333 2.632331
v -0.500001 0.791667 2.632331
v -0.500001 0.875000 2.632331
v 0.374999 1.000000 2.632333
v 0.124999 1.000000 2.632333
v -0.125001 1.000000 2.632332
v 0.499999 -0.958333 2.632332
v 0.499999 -0.875000 2.632332
v 0.499999 -0.791667 2.632332
v 0.499999 -0.625000 2.632332
v 0.499999 -0.541667 2.632332
v 0.499999 -0.458333 2.632332
v 0.499999 -0.291667 2.632333
v 0.499999 -0.208333 2.632333
v 0.499999 -0.125000 2.632333
v 0.499999 0.041667 2.632333
v 0.499999 0.125000 2.632333
v 0.499999 0.208333 2.632333
v 0.499999 0.375000 2.632333
v 0.499999 0.458333 2.632333
v 0.499999 0.541667 2.632333
v -0.500001 -0.958333 2.632332
v -0.500001 -0.875000 2.632332
v -0.500001 -0.791667 2.632332
v -0.500001 -0.625000 2.632332
v -0.500001 -0.541667 2.632332
v -0.500001 -0.458333 2.632332
v -0.500001 -0.291667 2.632332
v -0.500001 -0.208333 2.632332
v -0.500001 -0.125000 2.632332
v -0.500001 0.041667 2.632332
v -0.500001 0.125000 2.632332
v -0.500001 0.208333 2.632332
v -0.500001 0.375000 2.632331
v -0.500001 0.458333 2.632331
v -0.500001 0.541667 2.632331
v 0.100000 0.157925 -1.999999
v -0.100000 0.157925 -2.000000
v 0.100000 0.157925 -1.199999
v -0.100000 0.157925 -1.200000
v 0.300000 0.386850 -1.999999
v 0.100000 0.386850 -1.999999
v 0.300000 0.386850 -1.199999
v 0.100000 0.386850 -1.199999
v 0.300001 1.000000 -2.309479
v 0.100001 1.000000 -2.309479
v 0.300001 0.386850 -2.309479
v 0.100001 0.386850 -2.309479
v 0.100000 1.483252 -1.199999
v -0.100000 1.483252 -1.200000
v 0.100000 1.483252 -0.399999
v -0.100000 1.483252 -0.400000
vn 0.0000 1.0000 0.0000
vn 0.0000 -1.0000 0.0000
vn -1.0000 -0.0000 -0.0000
vn 1.0000 0.0000 0.0000
vn -0.0000 -0.0000 1.0000
vn 0.0000 0.0000 -1.0000
vn 0.0437 -0.9990 0.0000
vn -0.9965 0.0000 0.0830
vn 0.0000 0.2425 -0.9701
usemtl Material
s off
f 1//1 4//1 3//1 2//1
f 196//2 176//2 7//2 177//2
f 1//3 2//3 6//3 206//3 205//3 168//3 167//3 166//3 165//3 5//3
f 3//4 4//4 8//4 180//4 179//4 178//4 177//4 7//4
f 5//5 169//5 170//5 171//5 172//5 8//5 4//5 1//5
f 9//2 13//2 14//2 15//2 16//2 17//2 10//2 12//2 45//2 46//2 47//2 48//2 49//2 11//2
f 27//5 26//5 135//5 129//5
f 50//3 12//3 228//3 266//3 267//3 268//3 236//3
f 26//5 25//5 134//5 135//5
f 25//5 24//5 133//5 134//5
f 24//5 23//5 132//5 133//5
f 9//4 18//4 28//4 13//4
f 33//6 34//6 157//6 155//6
f 14//4 29//4 30//4 15//4
f 18//4 19//4 31//4 28//4
f 29//4 32//4 33//4 30//4
f 43//5 38//5 160//5 164//5
f 37//6 42//6 163//6 159//6
f 35//4 38//4 39//4 36//4
f 30//6 33//6 155//6 151//6
f 38//4 43//4 44//4 39//4
f 16//2 15//2 143//2 144//2
f 79//5 84//5 98//5 97//5
f 64//5 69//5 95//5 94//5
f 59//6 58//6 93//6 87//6
f 58//6 57//6 92//6 93//6
f 12//3 50//3 60//3 45//3
f 46//2 45//2 113//2 114//2
f 46//3 61//3 62//3 47//3
f 72//5 77//5 109//5 107//5
f 48//3 63//3 64//3 49//3
f 50//3 51//3 65//3 60//3
f 65//5 70//5 121//5 119//5
f 61//3 66//3 67//3 62//3
f 47//5 62//5 103//5 99//5
f 51//3 52//3 70//3 65//3
f 76//6 71//6 122//6 124//6
f 66//3 71//3 72//3 67//3
f 83//6 78//6 110//6 112//6
f 52//3 53//3 75//3 70//3
f 61//6 46//6 114//6 118//6
f 68//6 63//6 104//6 106//6
f 73//3 78//3 79//3 74//3
f 53//3 54//3 80//3 75//3
f 70//5 75//5 123//5 121//5
f 76//3 81//3 82//3 77//3
f 77//5 82//5 111//5 109//5
f 78//3 83//3 84//3 79//3
f 45//5 60//5 117//5 113//5
f 62//5 67//5 105//5 103//5
f 98//3 89//3 88//3 87//3
f 85//3 94//3 90//3 86//3
f 94//3 95//3 91//3 90//3
f 95//3 96//3 92//3 91//3
f 96//3 97//3 93//3 92//3
f 97//3 98//3 87//3 93//3
f 11//2 49//2 85//2 86//2
f 49//5 64//5 94//5 85//5
f 74//5 79//5 97//5 96//5
f 55//6 11//6 86//6 90//6
f 56//6 55//6 90//6 91//6
f 57//6 56//6 91//6 92//6
f 69//5 74//5 96//5 95//5
f 99//3 103//3 104//3 100//3
f 103//3 105//3 106//3 104//3
f 105//3 107//3 108//3 106//3
f 107//3 109//3 110//3 108//3
f 109//3 111//3 112//3 110//3
f 111//3 101//3 102//3 112//3
f 63//6 48//6 100//6 104//6
f 78//6 73//6 108//6 110//6
f 67//5 72//5 107//5 105//5
f 48//7 47//7 99//7 100//7
f 73//6 68//6 106//6 108//6
f 113//3 117//3 118//3 114//3
f 117//3 119//3 120//3 118//3
f 119//3 121//3 122//3 120//3
f 121//3 123//3 124//3 122//3
f 123//3 125//3 126//3 124//3
f 125//3 115//3 116//3 126//3
f 71//6 66//6 120//6 122//6
f 60//5 65//5 119//5 117//5
f 75//5 80//5 125//5 123//5
f 66//6 61//6 118//6 120//6
f 81//6 76//6 124//6 126//6
f 140//4 131//4 130//4 129//4
f 127//4 136//4 132//4 128//4
f 136//4 137//4 133//4 132//4
f 137//4 138//4 134//4 133//4
f 138//4 139//4 135//4 134//4
f 139//4 140//4 129//4 135//4
f 39//6 44//6 140//6 139//6
f 36//6 39//6 139//6 138//6
f 23//5 10//5 128//5 132//5
f 10//2 17//2 127//2 128//2
f 141//4 149//4 150//4 142//4
f 143//4 151//4 152//4 144//4
f 149//4 153//4 154//4 150//4
f 151//4 155//4 156//4 152//4
f 155//4 157//4 158//4 156//4
f 157//4 159//4 160//4 158//4
f 159//4 163//4 164//4 160//4
f 161//4 145//4 146//4 162//4
f 163//4 147//4 148//4 164//4
f 13//6 28//6 149//6 141//6
f 29//5 14//5 142//5 150//5
f 15//6 30//6 151//6 143//6
f 34//6 37//6 159//6 157//6
f 38//5 35//5 158//5 160//5
f 14//2 13//2 141//2 142//2
f 28//6 31//6 153//6 149//6
f 32//5 29//5 150//5 154//5
f 172//2 184//2 180//2 8//2
f 184//2 188//2 179//2 180//2
f 188//2 192//2 178//2 179//2
f 192//2 196//2 177//2 178//2
f 5//2 165//2 181//2 169//2
f 181//5 182//5 397//5 396//5
f 183//3 171//3 391//3 393//3
f 165//2 166//2 185//2 181//2
f 181//2 185//2 186//2 182//2
f 187//4 183//4 403//4 405//4
f 183//2 187//2 188//2 184//2
f 166//2 167//2 189//2 185//2
f 167//2 168//2 209//2 210//2 193//2 189//2
f 189//2 193//2 194//2 190//2
f 190//2 194//2 195//2 191//2
f 175//6 176//6 198//6 197//6
f 216//2 208//2 173//2 211//2
f 193//2 212//2 211//2 173//2 174//2 194//2
f 194//2 174//2 175//2 195//2
f 176//4 196//4 200//4 198//4
f 199//3 197//3 201//3 203//3
f 203//2 201//2 202//2 204//2
f 197//6 198//6 202//6 201//6
f 198//4 200//4 204//4 202//4
f 200//5 199//5 203//5 204//5
f 210//2 214//2 212//2 193//2
f 214//2 216//2 211//2 212//2
f 168//2 205//2 213//2 209//2
f 209//2 213//2 214//2 210//2
f 205//2 206//2 215//2 213//2
f 216//4 214//4 220//4 222//4
f 206//2 6//2 207//2 215//2
f 208//4 216//4 222//4 218//4
f 219//2 221//2 222//2 220//2
f 218//4 222//4 226//4 224//4
f 215//3 207//3 217//3 221//3
f 213//3 215//3 221//3 219//3
f 207//6 208//6 218//6 217//6
f 214//5 213//5 219//5 220//5
f 225//2 223//2 224//2 226//2
f 222//5 221//5 225//5 226//5
f 217//6 218//6 224//6 223//6
f 221//3 217//3 223//3 225//3
f 276//3 275//3 331//3 385//3 332//3
f 51//4 50//4 236//4 269//4 270//4 271//4 237//4
f 25//3 26//3 235//3 262//3 261//3 260//3 234//3
f 52//8 51//8 237//8 272//8 273//8 274//8 238//8
f 12//9 10//9 227//9 240//9 241//9 242//9 228//9
f 26//3 27//3 229//3 265//3 264//3 263//3 235//3
f 53//5 52//5 238//5 275//5 276//5 277//5 239//5
f 54//5 53//5 239//5 278//5 279//5 280//5 231//5
f 10//2 23//2 233//2 254//2 253//2 252//2 227//2
f 250//1 251//1 287//1 359//1 314//1
f 231//3 280//3 304//3 347//3 305//3
f 277//3 276//3 332//3 386//3 302//3
f 227//4 252//4 315//4 360//4 306//4
f 278//3 239//3 303//3 387//3 333//3
f 252//4 253//4 316//4 361//4 315//4
f 279//3 278//3 333//3 388//3 334//3
f 253//4 254//4 288//4 362//4 316//4
f 280//3 279//3 334//3 389//3 304//3
f 233//4 255//4 317//4 363//4 289//4
f 255//4 256//4 318//4 364//4 317//4
f 257//4 258//4 320//4 367//4 319//4
f 258//4 259//4 290//4 368//4 320//4
f 234//4 260//4 321//4 369//4 291//4
f 260//4 261//4 322//4 370//4 321//4
f 261//4 262//4 292//4 371//4 322//4
f 235//4 263//4 323//4 372//4 293//4
f 228//2 242//2 281//2 335//2 282//2
f 263//4 264//4 324//4 373//4 323//4
f 245//4 230//4 284//4 336//4 283//4
f 264//4 265//4 294//4 374//4 324//4
f 240//2 227//2 306//2 348//2 307//2
f 232//3 248//3 285//3 337//3 286//3
f 266//3 228//3 282//3 375//3 325//3
f 241//2 240//2 307//2 349//2 308//2
f 251//1 232//1 286//1 338//1 287//1
f 267//3 266//3 325//3 376//3 326//3
f 242//2 241//2 308//2 350//2 281//2
f 254//4 233//4 289//4 339//4 288//4
f 268//3 267//3 326//3 377//3 296//3
f 229//4 243//4 309//4 351//4 295//4
f 269//3 236//3 297//3 378//3 327//3
f 243//4 244//4 310//4 352//4 309//4
f 259//4 234//4 291//4 340//4 290//4
f 270//3 269//3 327//3 379//3 328//3
f 244//4 245//4 283//4 353//4 310//4
f 262//4 235//4 293//4 341//4 292//4
f 271//3 270//3 328//3 380//3 298//3
f 246//3 231//3 305//3 354//3 311//3
f 265//4 229//4 295//4 342//4 294//4
f 272//3 237//3 299//3 381//3 329//3
f 247//3 246//3 311//3 355//3 312//3
f 236//3 268//3 296//3 343//3 297//3
f 273//3 272//3 329//3 382//3 330//3
f 248//3 247//3 312//3 356//3 285//3
f 237//3 271//3 298//3 344//3 299//3
f 274//3 273//3 330//3 383//3 300//3
f 230//1 249//1 313//1 357//1 284//1
f 238//3 274//3 300//3 345//3 301//3
f 275//3 238//3 301//3 384//3 331//3
f 249//1 250//1 314//1 358//1 313//1
f 239//3 277//3 302//3 346//3 303//3
f 390//2 392//2 393//2 391//2
f 182//5 183//5 393//5 392//5
f 170//4 182//4 392//4 390//4
f 394//2 396//2 397//2 395//2
f 395//3 170//3 399//3 401//3
f 169//4 181//4 396//4 394//4
f 182//3 170//3 395//3 397//3
f 399//6 398//6 400//6 401//6
f 170//1 169//1 398//1 399//1
f 169//4 394//4 400//4 398//4
f 394//2 395//2 401//2 400//2
f 402//2 404//2 405//2 403//2
f 183//5 182//5 402//5 403//5
f 182//3 186//3 404//3 402//3
f 186//6 187//6 405//6 404//6
l 19 20
l 20 21
l 21 22
l 162 41
l 22 40
l 41 42
l 40 161
l 366 319
l 318 365
