# Blender v2.79 (sub 0) OBJ File: 'palier_immeuble.blend'
# www.blender.org
mtllib palier_immeuble.mtl
o Cube
v 11.300000 -1.000000 -5.699999
v 11.300000 -1.000000 5.700000
v -11.300001 -1.000000 5.699999
v 11.300006 1.000000 -5.699997
v 11.299993 1.000000 5.700003
v -11.300004 1.000000 5.699998
v 11.300000 -1.000000 -3.419999
v 11.300000 -1.000000 -1.140000
v 11.300000 -1.000000 1.140000
v 11.300000 -1.000000 3.420000
v 6.780000 -1.000000 -5.700000
v 2.260001 -1.000000 -5.700000
v -2.259998 -1.000000 -5.700001
v -6.779998 -1.000000 -5.700001
v 11.300001 -0.600000 -5.699999
v 11.300003 -0.200000 -5.699998
v 11.300004 0.200000 -5.699998
v 11.300006 0.600000 -5.699997
v 6.780000 -1.000000 5.699999
v 2.260000 -1.000000 5.699999
v -2.260000 -1.000000 5.699999
v -6.780001 -1.000000 5.699999
v 11.299999 -0.600000 5.700000
v 11.299997 -0.200000 5.700001
v 11.299996 0.200000 5.700002
v 11.299994 0.600000 5.700003
v -11.300000 -1.000000 3.419999
v -11.299999 -1.000000 1.139999
v -11.299998 -1.000000 -1.140002
v -11.299997 -1.000000 -3.420002
v -11.300001 -0.600000 5.699998
v -11.300003 -0.200000 5.699998
v -11.300003 0.200000 5.699998
v -11.300003 0.600000 5.699998
v 11.300003 1.000000 -3.419997
v 11.300000 1.000000 -1.139997
v 11.299997 1.000000 1.140003
v 11.299994 1.000000 3.420003
v 6.780005 1.000000 -5.699997
v 2.260003 1.000000 -5.699998
v -2.259998 1.000000 -5.699999
v -6.779999 1.000000 -5.699999
v 6.779994 1.000000 5.700002
v 2.259994 1.000000 5.700001
v -2.260005 1.000000 5.700000
v -6.780005 1.000000 5.699999
v -11.300003 1.000000 3.419998
v -11.300001 1.000000 1.139999
v -11.300000 1.000000 -1.140001
v -11.300000 1.000000 -3.420001
v 6.780005 0.600000 -5.699998
v 2.260004 0.600000 -5.699998
v -2.259997 0.600000 -5.699999
v -6.779998 0.600000 -5.699999
v 6.780003 0.200000 -5.699998
v 2.260003 0.200000 -5.699999
v -2.259998 0.200000 -5.699999
v -6.779998 0.200000 -5.700000
v 6.780003 -0.200000 -5.699999
v 2.260003 -0.200000 -5.700000
v -2.259998 -0.200000 -5.700000
v -6.779998 -0.200000 -5.700001
v 6.780002 -0.600000 -5.699999
v 2.260002 -0.600000 -5.700000
v -2.259998 -0.600000 -5.700000
v -6.779998 -0.600000 -5.700001
v -11.300000 -0.600000 3.419999
v -11.299999 -0.600000 1.139999
v -11.299999 -0.600000 -1.140001
v -11.299997 -0.600000 -3.420001
v -11.300001 -0.200000 3.419999
v -11.300000 -0.200000 1.139999
v -11.299999 -0.200000 -1.140001
v -11.299999 -0.200000 -3.420001
v -11.300001 0.200000 3.419999
v -11.300000 0.200000 1.139999
v -11.299999 0.200000 -1.140001
v -11.299999 0.200000 -3.420001
v -11.300001 0.600000 3.419998
v -11.300000 0.600000 1.139999
v -11.299999 0.600000 -1.140001
v -11.299999 0.600000 -3.420001
v 6.779999 -0.600000 5.700000
v 2.259999 -0.600000 5.699999
v -2.260002 -0.600000 5.699999
v -6.780002 -0.600000 5.699999
v 6.779998 -0.200000 5.700000
v 2.259998 -0.200000 5.700000
v -2.260003 -0.200000 5.699999
v -6.780003 -0.200000 5.699999
v 6.779996 0.200000 5.700001
v 2.259997 0.200000 5.700000
v -2.260003 0.200000 5.700000
v -6.780003 0.200000 5.699999
v 6.779995 0.600000 5.700002
v 2.259995 0.600000 5.700001
v -2.260004 0.600000 5.700000
v -6.780003 0.600000 5.699999
v 11.300001 -0.600000 -3.419999
v 11.300000 -0.600000 -1.139999
v 11.299999 -0.600000 1.140001
v 11.299999 -0.600000 3.420001
v 11.300001 -0.200000 -3.419999
v 11.300000 -0.200000 -1.139999
v 11.299999 -0.200000 1.140001
v 11.299999 -0.200000 3.420001
v 11.300003 0.200000 -3.419998
v 11.300001 0.200000 -1.139998
v 11.299999 0.200000 1.140002
v 11.299997 0.200000 3.420002
v 11.300003 0.600000 -3.419997
v 11.300000 0.600000 -1.139997
v 11.299998 0.600000 1.140003
v 11.299996 0.600000 3.420003
v 6.780003 1.000000 -3.419997
v 6.780000 1.000000 -1.139997
v 6.779998 1.000000 1.140002
v 6.779996 1.000000 3.420002
v 2.260001 1.000000 -3.419998
v 2.260000 1.000000 -1.139998
v 2.259998 1.000000 1.140002
v 2.259996 1.000000 3.420001
v -2.260000 1.000000 -3.419999
v -2.260001 1.000000 -1.140000
v -2.260002 1.000000 1.140000
v -2.260004 1.000000 3.420000
v -6.780000 1.000000 -3.419999
v -6.780002 1.000000 -1.140000
v -6.780003 1.000000 1.140000
v -6.780003 1.000000 3.419999
v 6.780000 -1.000000 -3.420000
v 2.260001 -1.000000 -3.420000
v -2.259999 -1.000000 -3.420001
v -6.779998 -1.000000 -3.420001
v 6.780000 -1.000000 -1.140000
v 2.260000 -1.000000 -1.140000
v -2.259999 -1.000000 -1.140001
v -6.779999 -1.000000 -1.140001
v 6.780000 -1.000000 1.140000
v 2.260000 -1.000000 1.140000
v -2.259999 -1.000000 1.139999
v -6.779999 -1.000000 1.139999
v 6.780000 -1.000000 3.420000
v 2.260000 -1.000000 3.419999
v -2.260000 -1.000000 3.419999
v -6.780000 -1.000000 3.419999
v -6.779998 -1.000002 -3.390326
v -11.299996 -1.000002 -3.390327
v -11.299999 0.599998 -3.390325
v -11.299999 0.999998 -3.390325
v -6.779999 0.999998 -3.390325
v -11.299996 -0.600002 -3.390326
v -11.299997 -0.200002 -3.390326
v -11.299998 0.199998 -3.390326
v -6.779998 0.599998 -3.390325
v -6.779998 0.199998 -3.390325
v -6.779998 -0.200002 -3.390326
v -6.779998 -0.600002 -3.390326
v -8.114942 -0.999991 -3.420002
v -8.114942 -0.599994 -3.390326
v -8.114942 -0.199994 -3.390326
v -8.114942 -0.599991 -3.420001
v -8.114944 0.600006 -3.390325
v -8.114944 1.000006 -3.390325
v -8.114944 0.200006 -3.390326
v -6.779998 -0.200002 -3.390326
v -6.779998 -0.200000 -5.700001
v -6.779998 -0.600000 -5.700001
v -6.779998 -0.600002 -3.390326
v -6.779998 0.600000 -5.699999
v -6.779999 1.000000 -5.699999
v -6.779998 0.200000 -5.700000
v -6.779998 -1.000000 -5.700001
v -6.779998 0.599998 -3.390325
v -6.779999 0.999998 -3.390325
v -6.779998 0.199998 -3.390325
v -6.779998 -1.000002 -3.390326
vt 0.241855 0.908521
vt 0.291980 0.908521
vt 0.291980 0.958647
vt 0.241855 0.958647
vt 0.797964 0.796101
vt 0.997380 0.795900
vt 0.996607 0.994590
vt 0.797592 0.994791
vt 0.424812 0.091479
vt 0.374687 0.091479
vt 0.374687 0.041353
vt 0.424812 0.041353
vt 0.241855 0.091479
vt 0.241855 0.041353
vt 0.291980 0.041353
vt 0.291980 0.091479
vt 0.908521 0.241855
vt 0.958647 0.241855
vt 0.958647 0.241855
vt 0.908521 0.241855
vt 0.708020 0.041353
vt 0.758145 0.041353
vt 0.758145 0.091479
vt 0.708020 0.091479
vt 0.758145 0.141604
vt 0.708020 0.141604
vt 0.758145 0.191729
vt 0.708020 0.191729
vt 0.758145 0.241855
vt 0.708020 0.241855
vt 0.808271 0.041353
vt 0.808271 0.091479
vt 0.808271 0.141604
vt 0.808271 0.191729
vt 0.808271 0.241855
vt 0.858396 0.041353
vt 0.858396 0.091479
vt 0.858396 0.141604
vt 0.858396 0.191729
vt 0.858396 0.241855
vt 0.908521 0.041353
vt 0.908521 0.091479
vt 0.908521 0.141604
vt 0.908521 0.191729
vt 0.958647 0.041353
vt 0.958647 0.091479
vt 0.958647 0.141604
vt 0.958647 0.191729
vt 0.291980 0.625313
vt 0.241855 0.625313
vt 0.241855 0.575188
vt 0.291980 0.575188
vt 0.241855 0.525063
vt 0.291980 0.525063
vt 0.241855 0.474937
vt 0.291980 0.474937
vt 0.241855 0.424812
vt 0.291980 0.424812
vt 0.191729 0.625313
vt 0.191729 0.575188
vt 0.191729 0.525063
vt 0.191729 0.474937
vt 0.191729 0.424812
vt 0.141604 0.625313
vt 0.141604 0.575188
vt 0.141604 0.525063
vt 0.141604 0.474937
vt 0.141604 0.424812
vt 0.091479 0.625313
vt 0.091479 0.575188
vt 0.091479 0.525063
vt 0.091479 0.474937
vt 0.091479 0.424812
vt 0.041353 0.625313
vt 0.041353 0.575188
vt 0.041353 0.525063
vt 0.041353 0.474937
vt 0.041353 0.424812
vt 0.241855 0.291980
vt 0.241855 0.241855
vt 0.291980 0.241855
vt 0.291980 0.291980
vt 0.241855 0.191729
vt 0.291980 0.191729
vt 0.241855 0.141604
vt 0.291980 0.141604
vt 0.041353 0.291980
vt 0.041353 0.241855
vt 0.091479 0.241855
vt 0.091479 0.291980
vt 0.141604 0.241855
vt 0.141604 0.291980
vt 0.191729 0.241855
vt 0.191729 0.291980
vt 0.041353 0.191729
vt 0.091479 0.191729
vt 0.141604 0.191729
vt 0.191729 0.191729
vt 0.041353 0.141604
vt 0.091479 0.141604
vt 0.141604 0.141604
vt 0.191729 0.141604
vt 0.041353 0.091479
vt 0.091479 0.091479
vt 0.141604 0.091479
vt 0.191729 0.091479
vt 0.041353 0.041353
vt 0.091479 0.041353
vt 0.141604 0.041353
vt 0.191729 0.041353
vt 0.625313 0.091479
vt 0.575188 0.091479
vt 0.575188 0.041353
vt 0.625313 0.041353
vt 0.525063 0.091479
vt 0.525063 0.041353
vt 0.474937 0.091479
vt 0.474937 0.041353
vt 0.625313 0.291980
vt 0.575188 0.291980
vt 0.575188 0.241855
vt 0.625313 0.241855
vt 0.575188 0.191729
vt 0.625313 0.191729
vt 0.575188 0.141604
vt 0.625313 0.141604
vt 0.525063 0.291980
vt 0.525063 0.241855
vt 0.525063 0.191729
vt 0.525063 0.141604
vt 0.474937 0.291980
vt 0.474937 0.241855
vt 0.474937 0.191729
vt 0.474937 0.141604
vt 0.424812 0.291980
vt 0.424812 0.241855
vt 0.424812 0.191729
vt 0.424812 0.141604
vt 0.374687 0.291980
vt 0.374687 0.241855
vt 0.374687 0.191729
vt 0.374687 0.141604
vt 0.000301 0.796904
vt 0.199717 0.796703
vt 0.200549 0.995394
vt 0.001535 0.995595
vt 0.399133 0.796502
vt 0.399564 0.995193
vt 0.598548 0.796301
vt 0.598578 0.994992
vt -0.004632 0.002142
vt 0.196389 0.001941
vt 0.197221 0.200632
vt -0.003398 0.200832
vt 0.198053 0.399322
vt -0.002165 0.399523
vt 0.198885 0.598013
vt -0.000932 0.598214
vt 0.397410 0.001740
vt 0.397840 0.200431
vt 0.398271 0.399121
vt 0.398702 0.597812
vt 0.598430 0.001539
vt 0.598460 0.200230
vt 0.598489 0.398920
vt 0.598519 0.597611
vt 0.799451 0.001338
vt 0.799079 0.200029
vt 0.798707 0.398719
vt 0.798336 0.597410
vt 0.999699 0.199828
vt 0.998926 0.398518
vt 0.998153 0.597209
vt 0.091479 0.908521
vt 0.141604 0.908521
vt 0.141604 0.958647
vt 0.091479 0.958647
vt 0.191729 0.908521
vt 0.191729 0.958647
vt 0.041353 0.708020
vt 0.091479 0.708020
vt 0.091479 0.758145
vt 0.041353 0.758145
vt 0.091479 0.808271
vt 0.041353 0.808271
vt 0.091479 0.858396
vt 0.041353 0.858396
vt 0.041353 0.908521
vt 0.141604 0.708020
vt 0.141604 0.758145
vt 0.141604 0.808271
vt 0.141604 0.858396
vt 0.191729 0.708020
vt 0.191729 0.758145
vt 0.191729 0.808271
vt 0.191729 0.858396
vt 0.241855 0.708020
vt 0.241855 0.758145
vt 0.241855 0.808271
vt 0.241855 0.858396
vt 0.291980 0.708020
vt 0.291980 0.758145
vt 0.291980 0.808271
vt 0.291980 0.858396
vt 0.908521 0.241855
vt 0.958647 0.241855
vt 0.958647 0.291980
vt 0.908521 0.291980
vt 0.708020 0.241855
vt 0.758145 0.241855
vt 0.758145 0.291980
vt 0.708020 0.291980
vt 0.808271 0.241855
vt 0.808271 0.291980
vt 0.858396 0.241855
vt 0.858396 0.291980
vt 0.808271 0.291980
vt 0.758145 0.291980
vt 0.858396 0.241855
vt 0.858396 0.291980
vt 0.808271 0.241855
vt 0.858396 0.241855
vt 0.241855 0.424812
vt 0.291980 0.424812
vt 0.708020 0.291980
vt 0.908521 0.291980
vt 0.958647 0.241855
vt 0.908521 0.241855
vt 0.708020 0.241855
vt 0.758145 0.241855
vt 0.758145 0.241855
vt 0.708020 0.241855
vt 0.808271 0.241855
vt 0.000000 0.000000
vt 0.000000 0.000000
vt 0.000000 0.000000
vt 0.000000 0.000000
vt 0.000000 0.000000
vt 0.000000 0.000000
vt 0.000000 0.000000
vt 0.000000 0.000000
vn 0.0000 -1.0000 0.0000
vn 0.0000 1.0000 0.0000
vn 1.0000 0.0000 0.0000
vn -0.0000 -0.0000 1.0000
vn 0.0000 0.0000 -1.0000
vn -1.0000 0.0000 -0.0000
usemtl Matériau.001
s off
f 146/1/1 22/2/1 3/3/1 27/4/1
f 130/5/2 47/6/2 6/7/2 46/8/2
f 114/9/3 38/10/3 5/11/3 26/12/3
f 98/13/4 46/14/4 6/15/4 34/16/4
f 66/17/4 14/18/4 173/19/4 168/20/4
f 4/21/5 18/22/5 51/23/5 39/24/5
f 39/24/5 51/23/5 52/25/5 40/26/5
f 40/26/5 52/25/5 53/27/5 41/28/5
f 41/28/5 53/27/5 54/29/5 42/30/5
f 18/22/5 17/31/5 55/32/5 51/23/5
f 51/23/5 55/32/5 56/33/5 52/25/5
f 52/25/5 56/33/5 57/34/5 53/27/5
f 53/27/5 57/34/5 58/35/5 54/29/5
f 17/31/5 16/36/5 59/37/5 55/32/5
f 55/32/5 59/37/5 60/38/5 56/33/5
f 56/33/5 60/38/5 61/39/5 57/34/5
f 57/34/5 61/39/5 62/40/5 58/35/5
f 16/36/5 15/41/5 63/42/5 59/37/5
f 59/37/5 63/42/5 64/43/5 60/38/5
f 60/38/5 64/43/5 65/44/5 61/39/5
f 61/39/5 65/44/5 66/17/5 62/40/5
f 15/41/5 1/45/5 11/46/5 63/42/5
f 63/42/5 11/46/5 12/47/5 64/43/5
f 64/43/5 12/47/5 13/48/5 65/44/5
f 65/44/5 13/48/5 14/18/5 66/17/5
f 3/49/6 31/50/6 67/51/6 27/52/6
f 27/52/6 67/51/6 68/53/6 28/54/6
f 28/54/6 68/53/6 69/55/6 29/56/6
f 29/56/6 69/55/6 70/57/6 30/58/6
f 31/50/6 32/59/6 71/60/6 67/51/6
f 67/51/6 71/60/6 72/61/6 68/53/6
f 68/53/6 72/61/6 73/62/6 69/55/6
f 69/55/6 73/62/6 74/63/6 70/57/6
f 32/59/6 33/64/6 75/65/6 71/60/6
f 71/60/6 75/65/6 76/66/6 72/61/6
f 72/61/6 76/66/6 77/67/6 73/62/6
f 73/62/6 77/67/6 78/68/6 74/63/6
f 33/64/6 34/69/6 79/70/6 75/65/6
f 75/65/6 79/70/6 80/71/6 76/66/6
f 76/66/6 80/71/6 81/72/6 77/67/6
f 77/67/6 81/72/6 82/73/6 78/68/6
f 34/69/6 6/74/6 47/75/6 79/70/6
f 79/70/6 47/75/6 48/76/6 80/71/6
f 80/71/6 48/76/6 49/77/6 81/72/6
f 81/72/6 49/77/6 50/78/6 82/73/6
f 22/79/4 86/80/4 31/81/4 3/82/4
f 86/80/4 90/83/4 32/84/4 31/81/4
f 90/83/4 94/85/4 33/86/4 32/84/4
f 94/85/4 98/13/4 34/16/4 33/86/4
f 2/87/4 23/88/4 83/89/4 19/90/4
f 19/90/4 83/89/4 84/91/4 20/92/4
f 20/92/4 84/91/4 85/93/4 21/94/4
f 21/94/4 85/93/4 86/80/4 22/79/4
f 23/88/4 24/95/4 87/96/4 83/89/4
f 83/89/4 87/96/4 88/97/4 84/91/4
f 84/91/4 88/97/4 89/98/4 85/93/4
f 85/93/4 89/98/4 90/83/4 86/80/4
f 24/95/4 25/99/4 91/100/4 87/96/4
f 87/96/4 91/100/4 92/101/4 88/97/4
f 88/97/4 92/101/4 93/102/4 89/98/4
f 89/98/4 93/102/4 94/85/4 90/83/4
f 25/99/4 26/103/4 95/104/4 91/100/4
f 91/100/4 95/104/4 96/105/4 92/101/4
f 92/101/4 96/105/4 97/106/4 93/102/4
f 93/102/4 97/106/4 98/13/4 94/85/4
f 26/103/4 5/107/4 43/108/4 95/104/4
f 95/104/4 43/108/4 44/109/4 96/105/4
f 96/105/4 44/109/4 45/110/4 97/106/4
f 97/106/4 45/110/4 46/14/4 98/13/4
f 10/111/3 102/112/3 23/113/3 2/114/3
f 102/112/3 106/115/3 24/116/3 23/113/3
f 106/115/3 110/117/3 25/118/3 24/116/3
f 110/117/3 114/9/3 26/12/3 25/118/3
f 1/119/3 15/120/3 99/121/3 7/122/3
f 7/122/3 99/121/3 100/123/3 8/124/3
f 8/124/3 100/123/3 101/125/3 9/126/3
f 9/126/3 101/125/3 102/112/3 10/111/3
f 15/120/3 16/127/3 103/128/3 99/121/3
f 99/121/3 103/128/3 104/129/3 100/123/3
f 100/123/3 104/129/3 105/130/3 101/125/3
f 101/125/3 105/130/3 106/115/3 102/112/3
f 16/127/3 17/131/3 107/132/3 103/128/3
f 103/128/3 107/132/3 108/133/3 104/129/3
f 104/129/3 108/133/3 109/134/3 105/130/3
f 105/130/3 109/134/3 110/117/3 106/115/3
f 17/131/3 18/135/3 111/136/3 107/132/3
f 107/132/3 111/136/3 112/137/3 108/133/3
f 108/133/3 112/137/3 113/138/3 109/134/3
f 109/134/3 113/138/3 114/9/3 110/117/3
f 18/135/3 4/139/3 35/140/3 111/136/3
f 111/136/3 35/140/3 36/141/3 112/137/3
f 112/137/3 36/141/3 37/142/3 113/138/3
f 113/138/3 37/142/3 38/10/3 114/9/3
f 38/143/2 118/144/2 43/145/2 5/146/2
f 118/144/2 122/147/2 44/148/2 43/145/2
f 122/147/2 126/149/2 45/150/2 44/148/2
f 126/149/2 130/5/2 46/8/2 45/150/2
f 4/151/2 39/152/2 115/153/2 35/154/2
f 35/154/2 115/153/2 116/155/2 36/156/2
f 36/156/2 116/155/2 117/157/2 37/158/2
f 37/158/2 117/157/2 118/144/2 38/143/2
f 39/152/2 40/159/2 119/160/2 115/153/2
f 115/153/2 119/160/2 120/161/2 116/155/2
f 116/155/2 120/161/2 121/162/2 117/157/2
f 117/157/2 121/162/2 122/147/2 118/144/2
f 40/159/2 41/163/2 123/164/2 119/160/2
f 119/160/2 123/164/2 124/165/2 120/161/2
f 120/161/2 124/165/2 125/166/2 121/162/2
f 121/162/2 125/166/2 126/149/2 122/147/2
f 41/163/2 42/167/2 127/168/2 123/164/2
f 123/164/2 127/168/2 128/169/2 124/165/2
f 124/165/2 128/169/2 129/170/2 125/166/2
f 125/166/2 129/170/2 130/5/2 126/149/2
f 127/168/2 50/171/2 49/172/2 128/169/2
f 128/169/2 49/172/2 48/173/2 129/170/2
f 129/170/2 48/173/2 47/6/2 130/5/2
f 134/174/1 138/175/1 29/176/1 30/177/1
f 138/175/1 142/178/1 28/179/1 29/176/1
f 142/178/1 146/1/1 27/4/1 28/179/1
f 1/180/1 7/181/1 131/182/1 11/183/1
f 11/183/1 131/182/1 132/184/1 12/185/1
f 12/185/1 132/184/1 133/186/1 13/187/1
f 13/187/1 133/186/1 134/174/1 14/188/1
f 7/181/1 8/189/1 135/190/1 131/182/1
f 131/182/1 135/190/1 136/191/1 132/184/1
f 132/184/1 136/191/1 137/192/1 133/186/1
f 133/186/1 137/192/1 138/175/1 134/174/1
f 8/189/1 9/193/1 139/194/1 135/190/1
f 135/190/1 139/194/1 140/195/1 136/191/1
f 136/191/1 140/195/1 141/196/1 137/192/1
f 137/192/1 141/196/1 142/178/1 138/175/1
f 9/193/1 10/197/1 143/198/1 139/194/1
f 139/194/1 143/198/1 144/199/1 140/195/1
f 140/195/1 144/199/1 145/200/1 141/196/1
f 141/196/1 145/200/1 146/1/1 142/178/1
f 10/197/1 2/201/1 19/202/1 143/198/1
f 143/198/1 19/202/1 20/203/1 144/199/1
f 144/199/1 20/203/1 21/204/1 145/200/1
f 145/200/1 21/204/1 22/2/1 146/1/1
f 158/205/5 147/206/5 148/207/5 152/208/5
f 151/209/5 155/210/5 149/211/5 150/212/5
f 155/210/5 156/213/5 154/214/5 149/211/5
f 156/213/5 157/215/5 153/216/5 154/214/5
f 157/215/5 158/205/5 152/208/5 153/216/5
f 149/211/4 154/214/4 165/217/4 163/218/4
f 62/40/4 66/17/4 168/20/4 167/219/4
f 154/214/4 153/216/4 161/220/4 165/217/4
f 157/215/4 156/213/4 176/221/4 166/222/4
f 30/58/5 70/57/5 162/223/5 159/224/5
f 150/212/4 149/211/4 163/218/4 164/225/4
f 153/216/4 152/208/4 160/226/4 161/220/4
f 168/20/6 173/19/6 177/227/6 169/228/6
f 167/219/6 168/20/6 169/228/6 166/222/6
f 171/229/6 170/230/6 174/231/6 175/232/6
f 170/230/6 172/233/6 176/221/6 174/231/6
f 172/233/6 167/219/6 166/222/6 176/221/6
f 158/205/4 157/215/4 166/222/4 169/228/4
f 155/210/4 151/209/4 175/232/4 174/231/4
f 42/30/4 54/29/4 170/230/4 171/229/4
f 147/206/4 158/205/4 169/228/4 177/227/4
f 156/213/4 155/210/4 174/231/4 176/221/4
f 54/29/4 58/35/4 172/233/4 170/230/4
f 58/35/4 62/40/4 167/219/4 172/233/4
usemtl Matériau.001_NONE
f 14/234/4 147/235/4 177/236/4 173/237/4
f 151/238/4 42/239/4 171/240/4 175/241/4
