# Blender v2.79 (sub 0) OBJ File: ''
# www.blender.org
mtllib passeCable.mtl
o Cube
v 0.385331 -0.385331 -3.307746
v 0.385331 -0.385331 2.903317
v -0.032143 -0.385331 2.903317
v -0.032143 -0.385331 -3.307747
v 0.385331 0.385331 -3.307747
v 0.385330 0.385331 2.903317
v -0.032143 0.385331 2.903317
v -0.032143 0.385331 -3.307746
vt 1.002134 0.247108
vt -0.001348 0.266645
vt -0.004310 -0.014759
vt 1.006784 0.000000
vt 0.000238 0.765221
vt -0.000984 1.000000
vt 1.000405 0.999472
vt 1.000368 0.755452
vt -0.003370 0.249325
vt 0.000835 0.752068
vt 1.001470 0.749939
vt 1.001162 0.252931
vt 0.850568 0.124079
vt 0.850568 0.000000
vt 1.000000 0.000000
vt 1.000000 0.124079
vt 0.275853 0.000000
vt 0.551705 0.000000
vt 0.551705 1.000000
vt 0.275853 1.000000
vt 1.000000 0.124079
vt 1.000000 0.248158
vt 0.850568 0.248158
vt 0.850568 0.124079
vn 0.0000 -1.0000 0.0000
vn 0.0000 1.0000 0.0000
vn 1.0000 0.0000 0.0000
vn 0.0000 -0.0000 1.0000
vn -1.0000 -0.0000 -0.0000
vn 0.0000 0.0000 -1.0000
usemtl Matériau
s off
f 1/1/1 2/2/1 3/3/1 4/4/1
f 5/5/2 8/6/2 7/7/2 6/8/2
f 1/9/3 5/10/3 6/11/3 2/12/3
f 2/13/4 6/14/4 7/15/4 3/16/4
f 3/17/5 7/18/5 8/19/5 4/20/5
f 5/21/6 1/22/6 4/23/6 8/24/6
o Cube.001
v 0.481093 -0.488388 2.665527
v 0.481093 -0.488388 2.918326
v 0.306351 -0.488388 2.918326
v 0.306351 -0.488388 2.665526
v 0.481093 0.695853 2.665526
v 0.481092 0.695853 2.918326
v 0.306351 0.695853 2.918326
v 0.306351 0.695853 2.665527
vt 0.000000 0.000000
vt 1.000000 0.000000
vt 1.000000 1.000000
vt 0.000000 1.000000
vt 0.000000 0.000000
vt 1.000000 0.000000
vt 1.000000 1.000000
vt 0.000000 1.000000
vt 0.387209 -0.008271
vt 0.652448 0.007148
vt 0.663588 0.160399
vt 0.388688 0.164961
vt 0.429454 0.000000
vt 0.654446 0.000000
vt 0.655868 0.155789
vt 0.437986 0.164316
vt 0.342710 -0.004264
vt 0.576234 0.000000
vt 0.576234 0.164316
vt 0.344132 0.164316
vt 1.000000 0.000000
vt 1.000000 1.000000
vt 0.000000 1.000000
vn 0.0000 -1.0000 0.0000
vn 0.0000 1.0000 0.0000
vn 1.0000 0.0000 0.0000
vn 0.0000 -0.0000 1.0000
vn -1.0000 -0.0000 -0.0000
vn 0.0000 0.0000 -1.0000
usemtl Matériau.001
s off
f 9/25/7 10/26/7 11/27/7 12/28/7
f 13/29/8 16/30/8 15/31/8 14/32/8
f 9/33/9 13/34/9 14/35/9 10/36/9
f 10/37/10 14/38/10 15/39/10 11/40/10
f 11/41/11 15/42/11 16/43/11 12/44/11
f 13/29/12 9/45/12 12/46/12 16/47/12
o Cube.002
v 0.460451 -0.460436 -3.312245
v 0.460451 -0.460436 -3.059446
v 0.260606 -0.460436 -3.059446
v 0.260607 -0.460436 -3.312245
v 0.460452 0.723805 -3.312245
v 0.460451 0.723805 -3.059445
v 0.260606 0.723805 -3.059445
v 0.260607 0.723805 -3.312245
vt 0.000000 0.000000
vt 1.000000 0.000000
vt 1.000000 1.000000
vt 0.000000 1.000000
vt 0.000000 0.000000
vt 1.000000 0.000000
vt 1.000000 1.000000
vt 0.000000 1.000000
vt 0.387209 -0.008271
vt 0.652448 0.007148
vt 0.663588 0.160399
vt 0.388688 0.164961
vt 0.429454 0.000000
vt 0.654446 0.000000
vt 0.655868 0.155789
vt 0.437986 0.164316
vt 0.342710 -0.004264
vt 0.576234 0.000000
vt 0.576234 0.164316
vt 0.344132 0.164316
vt 1.000000 0.000000
vt 1.000000 1.000000
vt 0.000000 1.000000
vn 0.0000 -1.0000 0.0000
vn 0.0000 1.0000 0.0000
vn 1.0000 0.0000 0.0000
vn 0.0000 -0.0000 1.0000
vn -1.0000 -0.0000 -0.0000
vn 0.0000 0.0000 -1.0000
usemtl Matériau.002
s off
f 17/48/13 18/49/13 19/50/13 20/51/13
f 21/52/14 24/53/14 23/54/14 22/55/14
f 17/56/15 21/57/15 22/58/15 18/59/15
f 18/60/16 22/61/16 23/62/16 19/63/16
f 19/64/17 23/65/17 24/66/17 20/67/17
f 21/52/18 17/68/18 20/69/18 24/70/18
