# Blender v2.79 (sub 0) OBJ File: ''
# www.blender.org
mtllib passerelle.mtl
o Cube.001_Cube.003
v 6.003805 -0.102213 2.241110
v 6.003805 -0.102213 4.241110
v -5.996196 -0.102213 4.241110
v -5.996193 -0.102213 2.241109
v 6.003808 0.097787 2.241110
v 6.003801 0.097787 4.241110
v -5.996197 0.097787 4.241109
v -5.996195 0.097787 2.241110
vn 0.0000 -1.0000 0.0000
vn 0.0000 1.0000 0.0000
vn 1.0000 0.0000 0.0000
vn 0.0000 -0.0000 1.0000
vn -1.0000 -0.0000 -0.0000
vn 0.0000 0.0000 -1.0000
usemtl Material.003
s off
f 1//1 2//1 3//1 4//1
f 5//2 8//2 7//2 6//2
f 1//3 5//3 6//3 2//3
f 2//4 6//4 7//4 3//4
f 3//5 7//5 8//5 4//5
f 5//6 1//6 4//6 8//6
