# Blender v2.79 (sub 0) OBJ File: 'poster_Virtuel01.blend'
# www.blender.org
mtllib poster_Virtuel02.mtl
o Plan.003
v 0.574573 0.486933 4.014912
v 0.574573 -1.925096 4.014912
v 0.574573 0.486933 2.179498
v 0.574573 -1.925096 2.179498
vt 0.044475 0.964454
vt 0.044288 0.598323
vt 0.329485 0.598856
vt 0.320381 0.963318
vn 1.0000 -0.0000 0.0000
usemtl Matériau.003
s off
f 1/1/1 2/2/1 4/3/1 3/4/1
o Plan.004
v 0.879166 -0.726890 2.817039
v 0.879166 -2.524924 2.817039
v 0.879166 -0.726890 1.054858
v 0.879166 -2.524924 1.054858
vt 0.354053 0.936378
vt 0.348284 0.684946
vt 0.595321 0.684003
vt 0.595949 0.932935
vn 1.0000 -0.0000 0.0000
usemtl Matériau
s off
f 5/5/2 6/6/2 8/7/2 7/8/2
