# Blender v2.79 (sub 0) OBJ File: ''
# www.blender.org
mtllib socle.mtl
o Cube_Cube.001
v -3.088456 0.000002 3.571153
v -3.088456 0.316860 3.571153
v -3.088456 0.000002 2.484129
v -3.088456 0.811989 2.484129
v -1.088456 0.000002 3.571153
v -1.088456 0.316860 3.571153
v -1.088456 0.000002 2.484129
v -1.088456 0.811989 2.484129
v -3.088456 0.316860 3.208812
v -3.088456 0.811989 2.846471
v -2.421789 0.811989 2.484129
v -1.755123 0.811989 2.484129
v -1.088456 0.811989 2.846471
v -1.088456 0.316860 3.208812
v -1.755123 0.316860 3.571153
v -2.421789 0.316860 3.571153
v -1.755123 0.811989 2.846471
v -1.755123 0.316860 3.208812
v -2.421789 0.811989 2.846471
v -2.421789 0.316860 3.208812
v -3.088456 0.000002 3.762796
v -3.088456 0.316860 3.762796
v -1.088456 0.316860 3.762796
v -1.088456 0.000002 3.762796
v -2.421789 0.316860 3.762796
v -1.755123 0.316860 3.762796
v -1.755123 0.483642 3.571153
v -2.421789 0.483642 3.571153
v -1.755123 0.483642 3.762796
v -2.421789 0.483642 3.762796
vn -1.0000 0.0000 0.0000
vn 0.0000 0.0000 -1.0000
vn 1.0000 -0.0000 0.0000
vn 0.0000 -1.0000 0.0000
vn 0.0000 1.0000 0.0000
vn 0.0000 0.5906 0.8070
vn 0.0000 0.0000 1.0000
usemtl None
s off
f 1//1 2//1 9//1 10//1 4//1 3//1
f 3//2 4//2 11//2 12//2 8//2 7//2
f 7//3 8//3 13//3 14//3 6//3 5//3
f 15//2 16//2 28//2 27//2
f 3//4 7//4 5//4 1//4
f 20//5 9//5 2//5 16//5
f 14//5 18//5 15//5 6//5
f 18//5 20//5 16//5 15//5
f 8//5 12//5 17//5 13//5
f 13//6 17//6 18//6 14//6
f 12//5 11//5 19//5 17//5
f 17//6 19//6 20//6 18//6
f 11//5 4//5 10//5 19//5
f 19//6 10//6 9//6 20//6
f 24//7 23//7 26//7 25//7 22//7 21//7
f 16//5 2//5 22//5 25//5
f 5//3 6//3 23//3 24//3
f 6//5 15//5 26//5 23//5
f 2//1 1//1 21//1 22//1
f 1//4 5//4 24//4 21//4
f 27//5 28//5 30//5 29//5
f 26//3 15//3 27//3 29//3
f 25//7 26//7 29//7 30//7
f 16//1 25//1 30//1 28//1
