# Blender v2.79 (sub 0) OBJ File: 'Sol[3x2x1].blend'
# www.blender.org
mtllib Sol[3x2x1]_Lino_01.mtl
o Cube
v 3.000000 -1.000000 -2.000000
v 3.000000 -1.000000 2.000000
v -3.000000 -1.000000 2.000000
v -2.999999 -1.000000 -2.000001
v 3.059124 0.685495 -1.654038
v 3.059121 0.685495 2.345962
v -2.940878 0.685495 2.345960
v -2.940877 0.685495 -1.654039
vt 0.020677 0.708020
vt 0.145990 0.708020
vt 0.145990 0.958647
vt 0.020677 0.958647
vt 0.005089 0.507396
vt 0.522307 0.513941
vt 0.522775 0.996984
vt 0.002868 0.995725
vt 0.312657 0.291980
vt 0.187343 0.291980
vt 0.187343 0.041353
vt 0.312657 0.041353
vt 0.020677 0.291980
vt 0.020677 0.041353
vt 0.145990 0.041353
vt 0.145990 0.291980
vt 0.145990 0.625313
vt 0.020677 0.625313
vt 0.020677 0.374687
vt 0.145990 0.374687
vt 0.354010 0.041353
vt 0.479323 0.041353
vt 0.479323 0.291980
vt 0.354010 0.291980
vn 0.0000 -1.0000 0.0000
vn 0.0000 1.0000 -0.0000
vn 0.9994 -0.0351 0.0000
vn -0.0000 -0.2011 0.9796
vn -0.9994 0.0351 -0.0000
vn 0.0000 0.2011 -0.9796
usemtl Sol
s off
f 1/1/1 2/2/1 3/3/1 4/4/1
f 5/5/2 8/6/2 7/7/2 6/8/2
f 1/9/3 5/10/3 6/11/3 2/12/3
f 2/13/4 6/14/4 7/15/4 3/16/4
f 3/17/5 7/18/5 8/19/5 4/20/5
f 5/21/6 1/22/6 4/23/6 8/24/6
